<svg id="svg" version="1.1" xmlns="http://www.w3.org/2000/svg" xmlns:xlink="http://www.w3.org/1999/xlink" width="400" height="526.7080745341615" viewBox="0, 0, 400,526.7080745341615"><g id="svgg"><path id="path0" d="M185.000 81.175 C 182.394 81.350,180.958 81.658,179.800 82.291 C 177.020 83.812,174.191 84.315,169.672 84.093 C 166.001 83.913,165.426 83.978,164.472 84.680 C 162.387 86.216,161.411 86.510,157.427 86.800 C 153.443 87.090,147.667 89.139,145.601 90.995 C 145.270 91.292,143.590 91.895,141.867 92.335 C 140.145 92.775,138.435 93.396,138.067 93.716 C 137.700 94.035,136.320 94.693,135.000 95.177 C 133.680 95.662,132.240 96.382,131.800 96.779 C 131.360 97.175,130.047 97.810,128.881 98.188 C 127.454 98.652,126.014 99.570,124.466 101.003 C 122.741 102.600,121.005 103.652,117.492 105.227 C 114.919 106.381,112.722 107.615,112.609 107.970 C 112.497 108.326,111.368 109.373,110.102 110.299 C 108.836 111.225,104.110 115.721,99.601 120.291 C 95.092 124.861,89.932 129.950,88.136 131.600 C 84.174 135.240,81.513 138.471,80.761 140.554 C 80.453 141.408,79.174 143.271,77.919 144.692 C 76.663 146.114,75.424 147.922,75.164 148.710 C 74.904 149.498,73.662 151.415,72.405 152.971 C 71.147 154.527,69.901 156.466,69.635 157.280 C 69.369 158.095,68.712 159.407,68.175 160.198 C 67.639 160.989,67.200 161.777,67.200 161.951 C 67.200 162.125,66.480 163.633,65.600 165.303 C 64.476 167.437,64.000 168.836,64.000 170.005 C 64.000 171.147,63.574 172.444,62.642 174.135 C 61.895 175.491,61.150 177.050,60.987 177.600 C 60.824 178.150,60.159 179.376,59.510 180.324 C 58.463 181.852,58.309 182.462,58.157 185.701 C 58.014 188.749,57.809 189.656,56.918 191.177 C 56.031 192.689,55.800 193.702,55.555 197.135 C 55.308 200.590,55.095 201.513,54.263 202.736 C 52.662 205.088,52.598 206.017,52.607 227.050 L 52.615 247.100 53.961 249.650 C 55.210 252.016,55.321 252.533,55.496 256.800 C 55.664 260.879,55.811 261.627,56.793 263.400 C 57.445 264.579,58.003 266.335,58.151 267.677 C 58.303 269.055,58.866 270.800,59.580 272.100 C 60.228 273.281,60.940 275.380,61.163 276.764 C 61.409 278.291,62.027 280.012,62.736 281.141 C 63.377 282.163,64.029 283.540,64.182 284.200 C 64.336 284.860,64.721 285.687,65.036 286.037 C 65.352 286.388,66.030 287.746,66.543 289.055 C 67.056 290.365,68.044 292.220,68.738 293.178 C 69.432 294.136,70.000 295.160,70.000 295.454 C 70.000 295.748,70.630 297.176,71.400 298.627 C 72.170 300.079,72.800 301.499,72.800 301.784 C 72.800 302.069,73.869 303.578,75.176 305.139 C 76.482 306.699,77.894 308.746,78.312 309.688 C 79.017 311.277,82.627 315.440,84.000 316.247 C 84.880 316.765,87.599 320.247,87.607 320.867 C 87.630 322.517,88.579 323.566,106.475 341.731 C 122.363 357.857,120.296 355.780,127.400 362.757 C 132.040 367.314,135.955 371.232,148.515 383.888 C 148.782 384.157,149.887 385.237,150.971 386.288 C 152.055 387.340,154.305 389.637,155.971 391.393 C 157.637 393.149,159.603 395.129,160.340 395.793 C 161.077 396.457,162.665 397.990,163.868 399.200 C 165.071 400.410,166.987 402.320,168.127 403.444 C 169.267 404.568,170.560 405.868,171.000 406.332 C 179.838 415.657,187.247 422.641,189.400 423.677 C 190.720 424.312,192.340 425.136,193.000 425.508 C 195.390 426.857,199.593 426.318,203.948 424.105 C 207.657 422.220,207.848 422.048,221.948 407.878 C 233.843 395.925,240.615 389.146,251.400 378.400 C 293.344 336.608,303.892 325.673,304.766 323.079 C 305.197 321.799,306.468 320.307,310.117 316.800 C 313.817 313.243,315.164 311.656,316.059 309.800 C 316.695 308.480,318.161 306.287,319.316 304.927 C 320.616 303.397,321.707 301.598,322.180 300.207 C 322.600 298.970,323.097 297.864,323.284 297.748 C 323.606 297.549,324.529 295.814,326.979 290.800 C 327.570 289.590,328.386 287.970,328.793 287.200 C 331.447 282.172,332.873 278.745,333.149 276.730 C 333.342 275.318,333.884 273.811,334.571 272.772 C 335.335 271.618,335.840 270.102,336.191 267.913 C 336.530 265.794,337.015 264.309,337.644 263.466 C 338.515 262.298,338.603 261.720,338.794 255.978 C 338.997 249.845,339.020 249.716,340.393 247.012 L 341.786 244.269 341.674 226.047 L 341.563 207.826 340.340 205.419 C 339.239 203.253,339.090 202.509,338.841 197.952 C 338.580 193.178,338.499 192.805,337.394 191.357 C 336.341 189.976,336.197 189.419,335.959 185.811 C 335.695 181.789,333.968 177.210,331.204 173.200 C 330.825 172.650,330.396 171.151,330.250 169.868 C 330.082 168.388,329.623 167.003,328.993 166.075 C 328.447 165.272,328.001 164.431,328.001 164.207 C 328.006 162.899,323.560 155.052,321.328 152.430 C 319.901 150.754,318.800 149.080,318.800 148.586 C 318.800 147.579,317.593 145.695,315.477 143.400 C 314.666 142.520,313.731 140.990,313.399 140.000 C 312.798 138.207,310.184 135.144,307.655 133.270 C 306.844 132.668,306.400 131.993,306.400 131.361 C 306.400 130.706,306.070 130.232,305.400 129.927 C 304.755 129.633,304.400 129.145,304.400 128.552 C 304.400 128.046,304.175 127.449,303.900 127.225 C 303.625 127.001,302.534 126.094,301.476 125.209 C 300.417 124.324,299.378 123.600,299.167 123.600 C 298.956 123.600,298.578 123.150,298.327 122.600 C 297.974 121.824,297.572 121.600,296.536 121.600 C 295.486 121.600,295.200 121.436,295.200 120.833 C 295.200 119.709,294.780 118.801,294.257 118.796 C 293.163 118.787,288.761 115.547,288.161 114.309 C 287.447 112.835,284.610 110.562,282.680 109.917 C 281.063 109.377,279.100 107.942,276.800 105.619 C 273.542 102.327,271.886 101.252,263.818 97.193 C 258.121 94.326,255.029 93.008,253.018 92.589 C 251.468 92.266,249.749 91.668,249.197 91.261 C 246.780 89.474,240.536 86.864,237.622 86.421 C 235.940 86.165,234.024 85.584,233.222 85.084 C 231.967 84.304,231.091 84.176,225.772 84.000 C 219.988 83.808,219.649 83.750,217.372 82.556 L 215.000 81.312 201.800 81.123 C 194.540 81.019,186.980 81.043,185.000 81.175 M205.400 115.584 C 206.720 115.792,210.680 116.158,214.200 116.398 C 219.629 116.768,220.934 116.988,222.800 117.847 C 224.010 118.404,226.590 119.120,228.534 119.437 C 230.477 119.755,232.555 120.266,233.150 120.574 C 233.746 120.882,235.306 121.510,236.617 121.970 C 237.928 122.429,239.505 123.176,240.122 123.630 C 240.739 124.084,242.125 124.718,243.203 125.038 C 244.280 125.358,245.674 126.050,246.299 126.576 C 246.924 127.102,248.077 127.653,248.860 127.800 C 250.152 128.042,254.920 130.760,256.400 132.097 C 256.730 132.396,257.765 132.973,258.700 133.381 C 259.635 133.788,260.400 134.262,260.400 134.434 C 260.400 134.606,261.109 135.254,261.976 135.874 C 262.842 136.493,265.020 138.215,266.816 139.700 C 268.611 141.185,270.228 142.400,270.409 142.400 C 270.589 142.400,272.317 144.155,274.247 146.300 C 276.178 148.445,278.037 150.314,278.379 150.453 C 279.026 150.716,280.943 152.955,283.000 155.850 C 283.660 156.779,285.203 158.678,286.429 160.070 C 287.654 161.461,288.964 163.428,289.339 164.440 C 289.713 165.452,290.466 166.698,291.010 167.209 C 291.555 167.721,292.000 168.387,292.000 168.690 C 292.000 169.552,293.153 171.592,295.082 174.139 C 297.054 176.744,297.442 177.536,297.785 179.660 C 297.915 180.463,298.493 181.813,299.070 182.660 C 300.955 185.427,301.633 186.865,301.401 187.598 C 301.275 187.995,301.729 189.534,302.412 191.026 C 303.094 192.515,303.837 194.738,304.063 195.967 C 304.289 197.195,304.632 198.392,304.826 198.628 C 305.319 199.227,306.373 203.943,306.870 207.774 C 307.101 209.549,307.447 212.080,307.640 213.400 C 309.028 222.895,308.766 234.547,306.876 247.313 C 306.527 249.667,305.002 255.060,302.947 261.200 C 302.616 262.190,301.892 264.406,301.339 266.125 C 300.786 267.844,300.079 269.348,299.767 269.468 C 299.455 269.588,299.200 269.936,299.200 270.243 C 299.200 270.549,299.060 270.800,298.889 270.800 C 298.717 270.800,298.248 271.908,297.847 273.262 C 297.445 274.615,296.280 276.975,295.258 278.506 C 294.236 280.037,292.888 282.299,292.262 283.533 C 291.637 284.767,290.787 286.014,290.375 286.303 C 289.963 286.591,289.257 287.660,288.807 288.677 C 288.357 289.694,287.136 291.511,286.094 292.714 C 285.053 293.916,283.510 295.913,282.667 297.150 C 281.824 298.388,279.839 300.671,278.256 302.225 C 276.672 303.778,275.000 305.528,274.539 306.114 C 273.626 307.275,272.144 308.538,267.397 312.200 C 265.686 313.520,263.726 315.176,263.043 315.880 C 261.642 317.323,257.783 319.824,254.200 321.611 C 252.880 322.270,251.222 323.212,250.515 323.704 C 247.374 325.893,245.627 326.773,243.200 327.389 C 241.770 327.753,240.420 328.279,240.200 328.560 C 239.620 329.299,238.468 329.820,236.200 330.369 C 235.100 330.635,233.480 331.264,232.600 331.768 C 231.720 332.271,229.836 332.906,228.413 333.179 C 226.991 333.451,224.936 334.126,223.847 334.677 C 222.049 335.589,221.187 335.713,214.434 336.034 C 210.345 336.228,204.603 336.691,201.672 337.063 C 196.669 337.699,196.024 337.699,191.072 337.064 C 188.173 336.692,182.923 336.210,179.406 335.994 C 173.900 335.655,172.732 335.463,171.006 334.613 C 169.903 334.070,167.830 333.425,166.400 333.180 C 164.779 332.902,163.134 332.295,162.031 331.567 C 161.059 330.925,159.799 330.399,159.231 330.398 C 157.570 330.394,155.425 329.669,154.485 328.793 C 154.005 328.346,152.363 327.699,150.836 327.354 C 148.288 326.778,145.407 325.318,142.787 323.274 C 142.230 322.839,141.063 322.186,140.193 321.823 C 139.323 321.459,138.248 320.831,137.805 320.428 C 137.362 320.024,136.370 319.379,135.600 318.994 C 134.830 318.610,133.120 317.370,131.800 316.238 C 129.500 314.268,128.103 313.144,124.874 310.671 C 121.661 308.210,114.111 300.454,112.600 298.063 C 111.720 296.670,109.876 294.371,108.502 292.954 C 107.128 291.536,105.623 289.617,105.157 288.688 C 104.691 287.760,103.994 286.640,103.609 286.200 C 103.223 285.760,102.633 284.571,102.298 283.557 C 101.962 282.543,101.128 280.941,100.444 279.997 C 99.760 279.053,99.200 278.065,99.200 277.802 C 99.200 277.539,98.839 276.997,98.398 276.598 C 97.957 276.199,97.231 274.648,96.786 273.152 C 96.340 271.656,95.799 270.323,95.582 270.189 C 94.770 269.687,93.600 266.775,93.600 265.257 C 93.600 264.268,93.140 262.809,92.365 261.341 C 91.685 260.053,90.967 258.000,90.769 256.779 C 90.570 255.557,89.955 253.442,89.401 252.079 C 88.587 250.076,88.313 248.435,87.969 243.501 C 87.735 240.145,87.276 236.194,86.950 234.720 C 86.305 231.806,86.469 218.769,87.186 216.000 C 87.385 215.230,87.665 212.710,87.808 210.400 C 88.172 204.499,88.689 201.438,89.620 199.651 C 90.063 198.802,90.590 197.092,90.792 195.849 C 90.994 194.606,91.606 192.557,92.152 191.295 C 92.698 190.033,93.333 187.843,93.564 186.430 C 93.855 184.654,94.286 183.541,94.960 182.830 C 95.497 182.263,96.193 180.803,96.508 179.584 C 96.822 178.366,97.711 176.476,98.482 175.384 C 99.253 174.293,100.558 172.059,101.382 170.421 C 102.206 168.782,103.312 166.875,103.840 166.183 C 104.368 165.491,104.800 164.642,104.800 164.297 C 104.800 163.952,106.355 161.899,108.255 159.735 C 110.156 157.571,112.360 154.810,113.154 153.600 C 113.948 152.390,114.842 151.246,115.140 151.057 C 116.039 150.489,119.365 147.324,122.345 144.200 C 123.395 143.100,124.925 141.660,125.746 141.000 C 126.567 140.340,127.905 139.196,128.719 138.459 C 129.534 137.721,131.055 136.683,132.100 136.152 C 133.145 135.621,134.000 135.007,134.000 134.788 C 134.000 134.569,134.810 133.996,135.800 133.515 C 136.790 133.034,137.600 132.512,137.600 132.355 C 137.600 131.910,144.058 128.154,145.373 127.834 C 146.018 127.677,147.051 127.123,147.668 126.604 C 148.286 126.084,149.828 125.361,151.095 124.996 C 152.363 124.632,153.850 123.920,154.400 123.415 C 154.950 122.910,156.390 122.268,157.600 121.987 C 158.810 121.707,160.462 121.133,161.272 120.713 C 162.082 120.292,164.277 119.700,166.152 119.397 C 168.026 119.093,169.996 118.559,170.531 118.209 C 172.166 117.137,173.844 116.842,180.927 116.380 C 184.677 116.136,188.837 115.793,190.173 115.619 C 193.668 115.162,202.593 115.142,205.400 115.584 M173.000 159.987 C 168.576 160.118,165.492 160.382,165.000 160.671 C 163.763 161.400,163.547 171.354,164.737 172.819 L 165.533 173.800 174.467 173.718 C 186.558 173.607,185.584 174.115,185.899 167.757 C 186.301 159.649,186.212 159.596,173.000 159.987 M215.382 160.982 C 214.315 162.049,214.293 162.185,214.371 167.200 C 214.476 173.947,213.994 173.657,225.069 173.667 C 236.756 173.677,236.415 173.874,236.362 167.154 C 236.307 160.090,236.161 160.000,224.756 160.000 C 216.379 160.000,216.362 160.002,215.382 160.982 M153.786 182.960 C 151.457 183.975,150.269 185.709,149.736 188.870 C 149.468 190.460,148.747 192.753,148.134 193.965 C 147.169 195.872,146.988 196.797,146.782 200.856 C 146.568 205.067,146.433 205.710,145.461 207.180 C 144.584 208.505,144.311 209.527,144.025 212.551 C 143.757 215.375,143.399 216.812,142.557 218.443 C 141.606 220.284,141.408 221.244,141.208 225.000 C 141.013 228.640,140.783 229.810,139.875 231.773 C 139.135 233.374,138.696 235.131,138.528 237.173 C 138.351 239.325,137.892 241.086,136.940 243.265 L 135.600 246.330 135.600 264.315 C 135.600 284.330,135.620 284.583,137.234 285.417 C 138.564 286.105,173.970 286.296,175.735 285.625 C 177.653 284.896,177.711 284.056,177.550 259.376 C 177.401 236.596,177.405 236.459,178.242 235.333 C 179.300 233.908,181.300 232.723,183.153 232.422 C 185.675 232.012,185.612 232.688,185.501 206.868 C 185.403 184.294,185.375 183.517,184.624 182.968 C 183.526 182.165,155.627 182.158,153.786 182.960 M196.528 182.851 C 194.945 183.662,194.707 185.060,194.994 191.871 C 195.141 195.352,195.221 199.640,195.172 201.400 C 195.031 206.476,195.025 210.409,195.153 213.000 C 195.218 214.320,195.144 217.584,194.988 220.252 C 194.653 225.993,194.916 226.521,198.349 226.993 C 201.261 227.393,203.438 226.932,204.398 225.711 C 206.129 223.512,205.500 184.174,203.717 183.072 C 202.930 182.586,197.380 182.414,196.528 182.851 M215.995 182.902 C 214.396 184.218,214.350 184.926,214.369 207.968 C 214.389 233.291,214.172 231.732,217.798 232.657 C 222.778 233.928,222.778 233.927,222.796 260.800 C 222.812 284.943,222.787 284.566,224.431 285.416 C 225.899 286.175,261.318 286.294,262.961 285.545 C 264.538 284.826,264.600 284.037,264.600 264.600 L 264.600 246.200 263.243 243.600 C 262.144 241.495,261.854 240.429,261.717 238.000 C 261.591 235.781,261.229 234.288,260.325 232.263 C 259.264 229.887,259.079 228.941,258.919 225.094 C 258.763 221.326,258.581 220.367,257.705 218.691 C 256.933 217.215,256.596 215.790,256.362 213.013 C 256.109 210.015,255.809 208.848,254.799 206.920 C 253.815 205.044,253.501 203.859,253.325 201.367 C 253.146 198.828,252.857 197.765,251.866 196.002 C 250.797 194.103,250.598 193.275,250.394 189.907 C 250.136 185.616,249.314 184.122,246.600 183.010 C 244.861 182.297,216.850 182.199,215.995 182.902 " stroke="none" fill="#8eb879" fill-rule="evenodd"></path><path id="path1" d="M0.000 263.200 L 0.000 526.400 200.000 526.400 L 400.000 526.400 400.000 263.200 L 400.000 0.000 200.000 0.000 L 0.000 0.000 0.000 263.200 M219.250 79.920 C 222.126 81.158,222.604 81.239,227.650 81.336 C 232.650 81.433,233.196 81.523,236.000 82.713 C 237.650 83.414,239.916 84.160,241.035 84.371 C 242.154 84.582,245.221 85.843,247.851 87.173 C 250.772 88.651,253.402 89.698,254.610 89.863 C 258.987 90.463,275.560 99.524,279.436 103.435 C 280.775 104.787,282.828 106.374,283.998 106.961 C 286.729 108.333,289.712 110.837,291.211 113.016 C 292.198 114.451,292.810 114.871,294.945 115.582 C 298.587 116.794,310.000 127.924,310.000 130.264 C 310.000 130.822,311.161 132.503,313.011 134.626 C 314.667 136.525,316.283 138.702,316.601 139.464 C 316.919 140.225,318.148 142.015,319.331 143.441 C 320.515 144.867,321.703 146.768,321.972 147.666 C 322.241 148.563,322.856 149.692,323.338 150.175 C 326.319 153.155,332.914 165.714,333.330 169.200 C 333.458 170.277,334.587 173.088,336.142 176.200 C 338.512 180.943,338.764 181.692,339.014 184.726 C 339.226 187.296,339.557 188.557,340.473 190.273 C 341.544 192.280,341.671 192.921,341.797 196.947 C 341.950 201.846,342.007 202.110,343.534 205.000 L 344.590 207.000 344.595 226.400 L 344.600 245.800 343.519 247.400 C 342.074 249.541,341.697 251.621,341.641 257.770 C 341.598 262.456,341.504 263.094,340.636 264.575 C 340.109 265.474,339.454 267.378,339.180 268.805 C 338.906 270.232,338.229 272.300,337.677 273.400 C 337.124 274.500,336.434 276.524,336.143 277.897 C 335.852 279.271,334.657 282.241,333.488 284.497 C 332.318 286.754,330.391 290.670,329.204 293.200 C 328.017 295.730,326.541 298.630,325.923 299.644 C 325.305 300.659,324.800 301.766,324.800 302.106 C 324.800 302.445,323.656 304.152,322.257 305.899 C 320.859 307.645,319.378 309.955,318.967 311.031 C 318.388 312.546,317.117 314.084,313.346 317.830 C 309.751 321.402,308.367 323.056,308.068 324.138 C 307.413 326.512,305.931 328.131,287.433 346.692 C 277.735 356.423,256.390 377.879,240.000 394.372 C 217.657 416.856,209.800 424.524,208.600 425.018 C 203.050 427.303,202.097 428.859,203.434 433.457 C 204.617 437.527,202.822 438.556,194.920 438.336 C 187.643 438.133,185.254 435.673,187.787 430.991 C 189.356 428.089,189.025 427.180,185.532 424.804 C 183.774 423.608,173.767 413.833,155.840 395.800 C 140.968 380.840,119.107 358.880,107.260 347.000 C 86.590 326.273,84.052 323.515,83.464 321.129 C 83.318 320.540,81.660 318.470,79.778 316.529 C 77.439 314.115,76.007 312.241,75.248 310.600 C 74.638 309.280,73.459 307.481,72.629 306.601 C 71.799 305.722,70.447 303.652,69.624 302.001 C 68.802 300.351,67.842 298.460,67.491 297.800 C 67.140 297.140,66.029 294.890,65.021 292.800 C 64.014 290.710,62.765 288.190,62.246 287.200 C 59.397 281.767,58.486 279.588,58.232 277.600 C 58.078 276.390,57.486 274.604,56.918 273.630 C 56.349 272.657,55.662 270.582,55.391 269.020 C 55.085 267.258,54.500 265.593,53.849 264.634 C 52.768 263.042,52.747 262.899,52.611 256.344 C 52.545 253.150,52.435 252.725,51.170 250.753 L 49.800 248.619 49.800 226.409 L 49.800 204.200 51.122 201.674 C 52.218 199.580,52.499 198.498,52.765 195.350 C 53.006 192.494,53.290 191.274,53.912 190.434 C 54.988 188.977,55.526 186.780,55.541 183.774 C 55.553 181.377,57.682 176.173,60.046 172.763 C 60.441 172.193,60.958 170.513,61.195 169.029 C 61.567 166.700,63.572 162.022,65.578 158.800 C 65.784 158.470,66.417 157.134,66.985 155.832 C 67.553 154.529,68.798 152.630,69.751 151.611 C 70.704 150.593,72.038 148.597,72.716 147.176 C 73.394 145.755,74.680 143.784,75.573 142.796 C 76.467 141.808,77.720 139.920,78.357 138.600 C 80.018 135.161,108.624 106.324,112.000 104.687 C 117.342 102.095,120.868 100.041,122.858 98.361 C 125.473 96.152,136.374 90.692,140.000 89.774 C 141.430 89.412,144.651 88.122,147.158 86.907 C 150.924 85.082,152.272 84.636,154.910 84.341 C 157.043 84.102,159.049 83.558,160.952 82.701 C 163.700 81.463,163.998 81.416,169.400 81.377 C 174.644 81.339,175.147 81.267,177.312 80.234 C 180.826 78.557,182.142 78.458,199.800 78.535 L 216.200 78.608 219.250 79.920 M191.000 126.272 C 187.277 126.591,174.771 128.791,171.000 129.790 C 167.263 130.781,159.807 133.222,158.104 134.013 C 157.172 134.446,156.307 134.800,156.184 134.800 C 155.875 134.800,146.746 139.122,146.000 139.621 C 145.670 139.842,144.887 140.333,144.259 140.711 C 139.990 143.287,131.145 149.427,128.573 151.600 C 125.496 154.199,120.597 158.645,119.978 159.400 C 119.798 159.620,118.950 160.610,118.094 161.600 C 114.421 165.850,109.200 172.552,109.200 173.016 C 109.200 173.164,108.671 173.952,108.025 174.768 C 107.379 175.584,106.616 176.780,106.329 177.426 C 106.042 178.072,105.434 179.161,104.978 179.846 C 101.480 185.102,95.458 200.627,94.367 207.200 C 94.202 208.190,93.801 210.530,93.474 212.400 C 92.082 220.369,91.904 231.117,93.012 240.200 C 93.375 243.171,95.208 252.479,95.612 253.400 C 95.804 253.840,96.141 254.830,96.359 255.600 C 98.354 262.635,104.579 275.992,107.852 280.262 C 108.500 281.108,109.549 282.610,110.182 283.600 C 110.816 284.590,112.699 287.091,114.367 289.159 C 116.035 291.226,117.850 293.486,118.400 294.181 C 120.245 296.514,127.980 303.376,132.398 306.600 C 133.302 307.260,134.618 308.270,135.321 308.845 C 136.024 309.419,137.140 310.189,137.800 310.556 C 140.353 311.974,141.831 312.903,142.600 313.573 C 143.040 313.957,144.030 314.511,144.800 314.805 C 145.570 315.099,146.650 315.648,147.200 316.025 C 147.999 316.573,154.656 319.726,159.000 321.614 C 181.986 331.602,216.920 331.485,241.800 321.334 C 249.667 318.125,262.173 311.267,265.200 308.502 C 265.530 308.200,266.361 307.559,267.046 307.077 C 271.851 303.694,278.870 297.352,281.518 294.000 C 282.300 293.010,283.328 291.840,283.801 291.400 C 289.823 285.804,299.841 267.853,303.222 256.600 C 303.486 255.720,303.870 254.563,304.075 254.029 C 304.280 253.495,304.635 252.145,304.864 251.029 C 305.093 249.913,305.440 248.280,305.635 247.400 C 309.013 232.166,308.032 212.780,303.146 198.200 C 301.842 194.309,301.800 194.198,300.245 190.550 C 299.670 189.202,299.199 187.942,299.198 187.750 C 299.195 187.096,295.425 180.115,292.742 175.796 C 285.562 164.238,273.448 151.883,262.460 144.912 C 252.055 138.311,243.965 134.304,236.800 132.203 C 235.810 131.912,233.200 131.140,231.000 130.486 C 228.800 129.832,226.460 129.177,225.800 129.030 C 225.140 128.884,223.880 128.595,223.000 128.388 C 222.120 128.181,220.230 127.837,218.800 127.623 C 217.370 127.409,214.400 126.962,212.200 126.630 C 208.532 126.075,195.800 125.860,191.000 126.272 M186.200 157.552 C 189.287 158.970,189.400 159.281,189.400 166.341 C 189.400 176.763,190.224 176.152,175.888 176.343 C 160.288 176.550,160.415 176.626,160.366 167.115 C 160.316 157.159,160.748 156.864,175.400 156.836 C 183.504 156.820,184.791 156.905,186.200 157.552 M237.478 158.114 C 239.704 159.659,239.900 160.309,239.960 166.346 C 240.056 176.106,239.990 176.155,226.711 176.331 C 210.843 176.540,211.059 176.656,210.870 167.882 C 210.632 156.828,210.654 156.812,226.235 156.928 L 235.871 157.000 237.478 158.114 M186.000 179.938 C 186.550 180.233,187.450 181.037,188.000 181.723 L 189.000 182.971 188.857 207.985 C 188.690 237.010,188.870 235.980,183.975 235.998 C 183.631 235.999,182.821 236.552,182.175 237.226 L 181.000 238.452 180.943 261.815 C 180.880 287.959,181.010 286.771,177.997 288.568 C 176.632 289.381,176.146 289.400,156.569 289.400 L 136.538 289.400 135.026 288.247 C 132.305 286.172,132.352 286.609,132.483 264.471 L 132.600 244.600 133.726 242.306 C 134.487 240.757,134.956 239.003,135.170 236.906 C 135.354 235.095,135.956 232.633,136.613 231.000 C 137.497 228.803,137.799 227.252,138.017 223.800 C 138.238 220.291,138.519 218.874,139.407 216.800 C 140.031 215.341,140.649 212.971,140.814 211.400 C 140.976 209.860,141.666 207.070,142.349 205.200 C 143.361 202.426,143.590 201.187,143.595 198.474 C 143.599 195.831,143.795 194.722,144.550 193.073 C 145.072 191.931,145.818 189.687,146.207 188.087 C 147.106 184.388,148.658 181.944,151.085 180.408 L 153.000 179.196 169.000 179.298 C 181.480 179.378,185.220 179.518,186.000 179.938 M205.847 180.225 C 208.566 182.257,208.402 180.764,208.503 204.403 C 208.620 231.584,208.928 230.634,200.000 230.564 C 190.966 230.492,191.494 232.086,191.442 204.737 C 191.395 180.142,191.225 181.558,194.428 179.883 C 196.485 178.808,204.263 179.040,205.847 180.225 M249.182 180.500 C 252.003 182.208,253.413 184.841,253.701 188.940 C 253.841 190.933,254.261 192.588,255.088 194.400 C 255.900 196.181,256.362 197.975,256.553 200.097 C 256.737 202.133,257.241 204.152,258.024 205.993 C 258.682 207.539,259.300 209.823,259.405 211.096 C 259.661 214.214,259.927 215.332,260.985 217.744 C 261.652 219.265,261.947 220.893,262.116 224.000 C 262.285 227.108,262.605 228.876,263.345 230.800 C 263.895 232.230,264.516 234.761,264.725 236.425 C 264.966 238.342,265.599 240.539,266.453 242.425 L 267.800 245.400 267.780 265.000 C 267.757 286.777,267.750 286.835,264.923 288.687 C 263.169 289.836,224.419 289.638,222.153 288.469 C 219.261 286.975,219.422 288.423,219.200 261.914 C 218.973 234.769,219.365 237.324,215.200 235.877 C 210.647 234.296,211.000 236.630,211.000 208.071 C 211.000 181.725,211.026 181.358,212.955 180.311 C 214.607 179.414,216.777 179.291,231.818 179.246 L 247.035 179.200 249.182 180.500 " stroke="none" fill="#f2f3f3" fill-rule="evenodd"></path><path id="path2" d="M181.512 78.797 C 180.474 78.980,178.584 79.627,177.312 80.234 C 175.147 81.267,174.644 81.339,169.400 81.377 C 163.998 81.416,163.700 81.463,160.952 82.701 C 159.049 83.558,157.043 84.102,154.910 84.341 C 152.272 84.636,150.924 85.082,147.158 86.907 C 144.651 88.122,141.430 89.412,140.000 89.774 C 136.374 90.692,125.473 96.152,122.858 98.361 C 120.868 100.041,117.342 102.095,112.000 104.687 C 108.624 106.324,80.018 135.161,78.357 138.600 C 77.720 139.920,76.467 141.808,75.573 142.796 C 74.680 143.784,73.394 145.755,72.716 147.176 C 72.038 148.597,70.704 150.593,69.751 151.611 C 68.798 152.630,67.553 154.529,66.985 155.832 C 66.417 157.134,65.784 158.470,65.578 158.800 C 63.572 162.022,61.567 166.700,61.195 169.029 C 60.958 170.513,60.441 172.193,60.046 172.763 C 57.682 176.173,55.553 181.377,55.541 183.774 C 55.526 186.780,54.988 188.977,53.912 190.434 C 53.290 191.274,53.006 192.494,52.765 195.350 C 52.499 198.498,52.218 199.580,51.122 201.674 L 49.800 204.200 49.800 226.409 L 49.800 248.619 51.170 250.753 C 52.435 252.725,52.545 253.150,52.611 256.344 C 52.747 262.899,52.768 263.042,53.849 264.634 C 54.500 265.593,55.085 267.258,55.391 269.020 C 55.662 270.582,56.349 272.657,56.918 273.630 C 57.486 274.604,58.078 276.390,58.232 277.600 C 58.486 279.588,59.397 281.767,62.246 287.200 C 62.765 288.190,64.014 290.710,65.021 292.800 C 66.029 294.890,67.140 297.140,67.491 297.800 C 67.842 298.460,68.802 300.351,69.624 302.001 C 70.447 303.652,71.799 305.722,72.629 306.601 C 73.459 307.481,74.638 309.280,75.248 310.600 C 76.007 312.241,77.439 314.115,79.778 316.529 C 81.660 318.470,83.318 320.540,83.464 321.129 C 84.052 323.515,86.590 326.273,107.260 347.000 C 119.107 358.880,140.968 380.840,155.840 395.800 C 173.767 413.833,183.774 423.608,185.532 424.804 C 189.025 427.180,189.356 428.089,187.787 430.991 C 185.254 435.673,187.643 438.133,194.920 438.336 C 202.822 438.556,204.617 437.527,203.434 433.457 C 202.097 428.859,203.050 427.303,208.600 425.018 C 209.800 424.524,217.657 416.856,240.000 394.372 C 256.390 377.879,277.735 356.423,287.433 346.692 C 305.931 328.131,307.413 326.512,308.068 324.138 C 308.367 323.056,309.751 321.402,313.346 317.830 C 317.117 314.084,318.388 312.546,318.967 311.031 C 319.378 309.955,320.859 307.645,322.257 305.899 C 323.656 304.152,324.800 302.445,324.800 302.106 C 324.800 301.766,325.305 300.659,325.923 299.644 C 326.541 298.630,328.017 295.730,329.204 293.200 C 330.391 290.670,332.318 286.754,333.488 284.497 C 334.657 282.241,335.852 279.271,336.143 277.897 C 336.434 276.524,337.124 274.500,337.677 273.400 C 338.229 272.300,338.906 270.232,339.180 268.805 C 339.454 267.378,340.109 265.474,340.636 264.575 C 341.504 263.094,341.598 262.456,341.641 257.770 C 341.697 251.621,342.074 249.541,343.519 247.400 L 344.600 245.800 344.595 226.400 L 344.590 207.000 343.534 205.000 C 342.007 202.110,341.950 201.846,341.797 196.947 C 341.671 192.921,341.544 192.280,340.473 190.273 C 339.557 188.557,339.226 187.296,339.014 184.726 C 338.764 181.692,338.512 180.943,336.142 176.200 C 334.587 173.088,333.458 170.277,333.330 169.200 C 332.914 165.714,326.319 153.155,323.338 150.175 C 322.856 149.692,322.241 148.563,321.972 147.666 C 321.703 146.768,320.515 144.867,319.331 143.441 C 318.148 142.015,316.919 140.225,316.601 139.464 C 316.283 138.702,314.667 136.525,313.011 134.626 C 311.161 132.503,310.000 130.822,310.000 130.264 C 310.000 127.924,298.587 116.794,294.945 115.582 C 292.810 114.871,292.198 114.451,291.211 113.016 C 289.712 110.837,286.729 108.333,283.998 106.961 C 282.828 106.374,280.775 104.787,279.436 103.435 C 275.560 99.524,258.987 90.463,254.610 89.863 C 253.402 89.698,250.772 88.651,247.851 87.173 C 245.221 85.843,242.154 84.582,241.035 84.371 C 239.916 84.160,237.650 83.414,236.000 82.713 C 233.196 81.523,232.650 81.433,227.650 81.336 C 222.604 81.239,222.126 81.158,219.250 79.920 L 216.200 78.608 199.800 78.535 C 190.780 78.496,182.551 78.613,181.512 78.797 M218.201 80.952 C 220.918 82.265,221.175 82.310,227.000 82.487 C 232.731 82.661,233.107 82.724,235.400 83.895 C 236.720 84.569,238.746 85.246,239.901 85.398 C 241.734 85.640,245.071 87.116,250.840 90.236 C 251.412 90.546,252.762 90.918,253.840 91.064 C 254.940 91.213,257.556 92.202,259.800 93.317 C 262.000 94.411,264.880 95.843,266.200 96.500 C 267.520 97.157,269.050 98.010,269.600 98.395 C 270.150 98.780,271.050 99.233,271.600 99.402 C 273.243 99.907,275.706 101.781,278.866 104.931 C 280.830 106.888,282.286 107.999,283.130 108.185 C 284.773 108.545,288.261 111.518,289.638 113.731 C 290.895 115.750,292.141 116.648,294.384 117.152 C 297.630 117.881,308.400 128.268,308.400 130.669 C 308.400 131.985,308.713 132.426,311.392 134.895 C 313.515 136.851,314.516 138.095,314.841 139.178 C 315.092 140.018,316.353 141.925,317.643 143.416 C 319.138 145.145,320.083 146.637,320.251 147.532 C 320.422 148.444,321.378 149.926,322.984 151.768 C 324.342 153.325,325.668 155.217,325.931 155.971 C 326.193 156.725,326.934 158.165,327.576 159.171 C 328.218 160.177,328.873 161.540,329.031 162.200 C 329.190 162.860,329.815 164.120,330.420 165.000 C 331.221 166.164,331.592 167.309,331.781 169.200 C 331.976 171.149,332.330 172.208,333.195 173.430 C 333.830 174.327,334.478 175.587,334.635 176.230 C 334.793 176.874,335.449 178.175,336.094 179.121 C 337.133 180.645,337.302 181.321,337.565 185.014 C 337.768 187.849,338.061 189.412,338.480 189.893 C 339.920 191.543,340.199 192.685,340.413 197.800 C 340.619 202.724,340.693 203.094,341.815 204.770 L 343.000 206.541 343.111 225.985 L 343.222 245.430 341.911 247.408 L 340.600 249.386 340.388 255.993 C 340.179 262.491,339.958 263.607,338.566 265.212 C 338.274 265.549,337.834 267.169,337.588 268.812 C 337.273 270.918,336.813 272.272,336.030 273.400 C 335.267 274.497,334.833 275.746,334.647 277.372 C 334.480 278.830,333.937 280.526,333.236 281.772 C 332.608 282.888,331.885 284.461,331.627 285.268 C 331.370 286.075,330.905 286.947,330.595 287.204 C 330.284 287.462,329.655 288.675,329.197 289.900 C 328.738 291.126,328.008 292.627,327.573 293.238 C 327.139 293.848,326.540 295.037,326.243 295.879 C 325.945 296.722,325.139 298.299,324.451 299.384 C 323.763 300.469,323.200 301.673,323.200 302.059 C 323.200 302.445,322.054 304.133,320.654 305.811 C 319.238 307.508,317.893 309.579,317.623 310.480 C 317.116 312.172,311.769 318.146,309.835 319.181 C 308.482 319.905,306.590 322.659,305.973 324.802 C 305.459 326.590,293.940 338.436,255.882 376.317 C 251.747 380.433,244.097 388.112,238.882 393.382 C 221.234 411.216,208.671 423.600,208.227 423.600 C 207.984 423.600,206.352 424.320,204.600 425.200 C 202.848 426.080,201.107 426.800,200.731 426.800 C 199.913 426.800,199.336 427.584,199.889 427.945 C 201.040 428.695,201.591 435.525,200.561 436.278 C 199.662 436.935,192.457 436.991,191.053 436.351 C 189.406 435.601,189.112 432.925,190.400 430.400 C 192.119 427.030,191.398 425.458,187.457 423.986 C 185.244 423.159,183.926 421.917,163.657 401.557 C 151.856 389.703,129.581 367.358,114.159 351.902 C 86.413 324.096,86.112 323.778,85.611 321.667 C 85.209 319.976,84.729 319.188,83.295 317.867 C 79.321 314.207,77.183 311.746,76.808 310.400 C 76.593 309.630,75.771 308.280,74.981 307.400 C 72.678 304.834,71.200 302.731,71.200 302.018 C 71.200 301.654,70.685 300.544,70.055 299.551 C 69.425 298.558,68.683 297.038,68.406 296.173 C 68.128 295.308,67.466 294.018,66.935 293.306 C 66.404 292.595,65.710 291.278,65.393 290.380 C 65.076 289.482,64.447 288.228,63.995 287.593 C 63.543 286.959,62.928 285.624,62.628 284.626 C 62.328 283.629,61.638 282.285,61.094 281.639 C 60.393 280.805,59.983 279.633,59.680 277.593 C 59.400 275.703,58.908 274.221,58.244 273.260 C 57.573 272.290,57.082 270.793,56.779 268.800 C 56.517 267.078,56.024 265.459,55.621 265.000 C 54.385 263.592,54.295 263.191,54.012 257.849 C 53.751 252.947,53.649 252.452,52.466 250.368 L 51.200 248.135 51.200 226.136 L 51.200 204.137 52.500 202.176 C 53.696 200.372,53.811 199.912,53.941 196.447 C 54.067 193.061,54.207 192.475,55.325 190.659 C 56.415 188.887,56.598 188.166,56.804 184.819 C 57.005 181.580,57.202 180.757,58.107 179.400 C 58.693 178.520,59.392 177.170,59.660 176.400 C 59.927 175.630,60.633 174.232,61.227 173.294 C 61.966 172.128,62.395 170.773,62.584 169.010 C 62.750 167.457,63.156 166.055,63.604 165.485 C 64.014 164.965,64.804 163.509,65.361 162.250 C 65.918 160.991,66.717 159.475,67.137 158.881 C 67.557 158.286,68.031 157.199,68.190 156.464 C 68.356 155.699,69.486 153.959,70.835 152.392 C 72.130 150.887,73.566 148.698,74.027 147.528 C 74.535 146.235,75.644 144.615,76.851 143.400 C 78.147 142.095,79.074 140.705,79.519 139.400 C 80.127 137.615,81.857 135.738,95.600 121.953 L 111.000 106.505 116.200 103.994 C 119.526 102.388,122.085 100.849,123.301 99.724 C 124.347 98.757,126.327 97.443,127.701 96.805 C 129.076 96.167,130.830 95.296,131.600 94.870 C 135.514 92.704,138.433 91.445,140.602 90.988 C 142.662 90.555,144.933 89.566,151.400 86.288 C 152.060 85.954,154.220 85.555,156.200 85.403 C 159.210 85.171,160.161 84.919,162.000 83.863 C 164.182 82.610,164.248 82.600,170.000 82.569 C 175.337 82.540,175.944 82.460,177.600 81.571 C 181.193 79.642,180.973 79.662,198.601 79.630 L 215.403 79.600 218.201 80.952 M189.605 125.469 C 187.298 125.558,185.237 125.803,185.025 126.015 C 184.813 126.227,183.968 126.400,183.146 126.400 C 182.325 126.400,180.336 126.688,178.726 127.041 C 177.117 127.394,174.270 127.994,172.400 128.375 C 170.530 128.756,168.370 129.352,167.600 129.700 C 166.830 130.048,164.627 130.786,162.703 131.341 C 160.780 131.896,158.805 132.631,158.314 132.975 C 157.824 133.319,157.165 133.600,156.851 133.600 C 156.101 133.600,153.530 134.818,144.600 139.402 C 140.282 141.619,138.991 142.376,136.976 143.874 C 136.033 144.574,134.753 145.417,134.131 145.746 C 133.509 146.075,131.920 147.360,130.600 148.601 C 129.280 149.842,126.940 151.876,125.400 153.121 C 121.446 156.317,117.741 160.107,115.156 163.600 C 113.935 165.250,111.376 168.538,109.468 170.908 C 107.561 173.277,106.000 175.457,106.000 175.752 C 106.000 176.047,105.543 176.962,104.984 177.785 C 102.444 181.528,96.700 194.163,95.793 198.000 C 95.508 199.210,94.642 202.668,93.870 205.684 C 93.099 208.699,92.347 212.389,92.201 213.884 C 92.054 215.378,91.676 218.786,91.360 221.458 C 90.764 226.503,91.141 236.342,92.020 238.651 C 92.229 239.202,92.400 240.685,92.400 241.947 C 92.400 243.209,92.847 245.943,93.393 248.021 C 93.938 250.100,94.388 252.118,94.393 252.507 C 94.397 252.896,95.044 254.786,95.831 256.707 C 96.618 258.628,97.431 261.009,97.637 261.997 C 97.843 262.986,99.359 266.543,101.006 269.903 C 102.653 273.263,104.000 276.124,104.000 276.261 C 104.000 276.650,107.422 281.668,108.569 282.962 C 109.136 283.601,109.600 284.259,109.600 284.424 C 109.600 284.589,110.204 285.447,110.943 286.331 C 111.681 287.215,113.310 289.478,114.562 291.360 C 115.814 293.242,117.081 294.921,117.376 295.091 C 118.083 295.497,125.555 302.428,128.143 305.078 C 129.259 306.221,130.898 307.474,131.786 307.863 C 132.674 308.251,134.120 309.133,135.000 309.821 C 135.880 310.510,137.680 311.675,139.000 312.409 C 140.320 313.144,141.796 314.162,142.281 314.672 C 142.765 315.183,143.517 315.600,143.950 315.600 C 144.384 315.600,145.247 316.005,145.869 316.500 C 146.491 316.995,147.630 317.700,148.400 318.066 C 153.975 320.716,156.297 321.718,159.241 322.742 C 163.471 324.214,164.900 324.717,167.400 325.610 C 168.500 326.003,170.300 326.431,171.400 326.562 C 172.500 326.692,174.570 327.070,176.000 327.400 C 186.943 329.927,203.736 330.714,214.800 329.219 C 220.200 328.489,223.439 327.930,224.600 327.528 C 225.260 327.300,226.857 326.937,228.149 326.722 C 229.440 326.506,231.300 325.986,232.282 325.565 C 233.263 325.144,234.408 324.800,234.825 324.800 C 235.243 324.800,236.713 324.359,238.092 323.819 C 239.471 323.279,241.823 322.371,243.317 321.800 C 248.395 319.859,255.993 315.749,262.832 311.243 C 264.899 309.882,266.997 308.665,267.494 308.541 C 267.992 308.416,268.804 307.862,269.300 307.309 C 271.253 305.131,273.439 303.193,274.200 302.965 C 274.640 302.833,275.727 301.977,276.616 301.062 C 277.504 300.148,278.868 298.860,279.646 298.200 C 280.424 297.540,281.677 296.190,282.431 295.200 C 283.184 294.210,283.936 293.340,284.102 293.266 C 284.269 293.192,284.308 292.975,284.190 292.783 C 284.071 292.592,284.437 292.132,285.003 291.761 C 286.034 291.086,290.755 284.492,291.839 282.214 C 292.157 281.546,293.125 279.920,293.991 278.600 C 295.833 275.793,300.800 265.846,300.800 264.965 C 300.800 264.632,301.082 263.815,301.427 263.148 C 302.034 261.974,303.339 258.259,304.008 255.800 C 304.187 255.140,304.711 253.340,305.172 251.800 C 306.161 248.494,308.013 236.265,307.958 233.400 C 307.936 232.232,307.534 234.311,306.993 238.400 C 306.482 242.250,305.853 246.390,305.593 247.600 C 305.333 248.810,304.971 250.530,304.787 251.423 C 304.603 252.316,304.284 253.486,304.078 254.023 C 303.871 254.560,303.486 255.720,303.222 256.600 C 299.841 267.853,289.823 285.804,283.801 291.400 C 283.328 291.840,282.300 293.010,281.518 294.000 C 278.870 297.352,271.851 303.694,267.046 307.077 C 266.361 307.559,265.530 308.200,265.200 308.502 C 262.173 311.267,249.667 318.125,241.800 321.334 C 219.920 330.261,190.053 331.598,167.738 324.650 C 165.248 323.875,160.035 322.063,159.000 321.614 C 154.656 319.726,147.999 316.573,147.200 316.025 C 146.650 315.648,145.570 315.099,144.800 314.805 C 144.030 314.511,143.040 313.957,142.600 313.573 C 141.831 312.903,140.353 311.974,137.800 310.556 C 137.140 310.189,136.024 309.419,135.321 308.845 C 134.618 308.270,133.302 307.260,132.398 306.600 C 127.980 303.376,120.245 296.514,118.400 294.181 C 117.850 293.486,116.035 291.226,114.367 289.159 C 112.699 287.091,110.816 284.590,110.182 283.600 C 109.549 282.610,108.500 281.108,107.852 280.262 C 104.579 275.992,98.354 262.635,96.359 255.600 C 96.141 254.830,95.804 253.840,95.612 253.400 C 95.208 252.479,93.375 243.171,93.012 240.200 C 91.904 231.117,92.082 220.369,93.474 212.400 C 93.801 210.530,94.202 208.190,94.367 207.200 C 95.458 200.627,101.480 185.102,104.978 179.846 C 105.434 179.161,106.042 178.072,106.329 177.426 C 106.616 176.780,107.379 175.584,108.025 174.768 C 108.671 173.952,109.200 173.164,109.200 173.016 C 109.200 172.552,114.421 165.850,118.094 161.600 C 118.950 160.610,119.798 159.620,119.978 159.400 C 120.597 158.645,125.496 154.199,128.573 151.600 C 131.145 149.427,139.990 143.287,144.259 140.711 C 144.887 140.333,145.670 139.842,146.000 139.621 C 146.746 139.122,155.875 134.800,156.184 134.800 C 156.307 134.800,157.172 134.446,158.104 134.013 C 161.833 132.281,170.939 129.648,177.400 128.433 C 187.596 126.515,189.220 126.331,197.912 126.113 C 206.387 125.901,210.087 126.120,216.200 127.195 C 217.300 127.389,219.460 127.756,221.000 128.012 C 222.540 128.267,224.340 128.628,225.000 128.815 C 225.660 129.001,227.640 129.538,229.400 130.008 C 236.958 132.027,246.275 135.512,251.085 138.120 C 252.851 139.078,259.864 143.265,262.460 144.912 C 272.045 150.992,282.249 160.916,290.200 171.888 C 292.761 175.422,299.194 186.762,299.198 187.750 C 299.199 187.942,299.670 189.202,300.245 190.550 C 301.800 194.197,301.842 194.309,303.147 198.200 C 304.870 203.336,305.981 208.743,307.013 217.000 C 307.645 222.066,307.925 223.498,307.956 221.833 C 307.980 220.531,307.831 218.371,307.625 217.033 C 307.419 215.695,307.041 213.160,306.786 211.400 C 306.031 206.201,305.235 202.345,304.432 200.000 C 304.018 198.790,303.292 196.554,302.820 195.031 C 302.347 193.507,301.519 191.297,300.980 190.119 C 300.441 188.940,300.000 187.559,300.000 187.048 C 300.000 186.538,299.497 185.418,298.881 184.560 C 298.266 183.702,297.528 182.370,297.242 181.600 C 296.544 179.722,295.230 177.215,294.333 176.046 C 293.930 175.521,293.597 174.801,293.593 174.446 C 293.590 174.091,292.870 173.093,291.993 172.230 C 291.117 171.366,290.400 170.519,290.400 170.347 C 290.400 170.174,289.185 168.530,287.700 166.693 C 286.215 164.855,284.190 162.347,283.200 161.120 C 282.210 159.892,280.815 158.600,280.100 158.250 C 279.385 157.900,278.800 157.370,278.800 157.073 C 278.800 156.485,277.182 154.924,275.352 153.744 C 274.718 153.336,273.371 152.192,272.357 151.201 C 269.067 147.986,266.684 146.190,262.000 143.399 C 259.470 141.891,256.098 139.880,254.507 138.929 C 252.916 137.978,251.524 137.200,251.415 137.200 C 251.305 137.200,249.637 136.472,247.708 135.582 C 245.778 134.692,243.480 133.641,242.600 133.245 C 241.720 132.850,237.850 131.592,234.000 130.451 C 230.150 129.310,226.460 128.184,225.800 127.950 C 224.466 127.477,219.487 126.610,214.600 126.000 C 210.967 125.547,195.906 125.227,189.605 125.469 M164.468 157.394 C 160.787 158.543,160.329 159.629,160.366 167.115 C 160.415 176.626,160.288 176.550,175.888 176.343 C 190.224 176.152,189.400 176.763,189.400 166.341 C 189.400 159.281,189.287 158.970,186.200 157.552 C 184.135 156.604,167.390 156.482,164.468 157.394 M215.343 157.169 C 211.083 158.228,210.683 159.186,210.870 167.882 C 211.059 176.656,210.843 176.540,226.711 176.331 C 239.990 176.155,240.056 176.106,239.960 166.346 C 239.900 160.309,239.704 159.659,237.478 158.114 L 235.871 157.000 226.235 156.928 C 220.936 156.889,216.034 156.997,215.343 157.169 M185.600 158.911 C 187.406 159.814,187.999 161.715,187.997 166.600 C 187.994 175.378,188.295 175.182,174.651 175.285 C 161.773 175.383,161.998 175.528,162.002 167.113 C 162.005 160.660,162.415 159.578,165.200 158.661 C 166.611 158.196,184.611 158.417,185.600 158.911 M236.890 159.510 C 237.962 160.582,238.477 170.028,237.619 172.893 C 236.926 175.207,236.606 175.267,225.327 175.221 C 211.695 175.165,212.506 175.637,212.236 167.590 C 211.924 158.303,211.882 158.331,225.890 158.487 C 235.779 158.598,235.997 158.618,236.890 159.510 M151.085 180.408 C 148.658 181.944,147.106 184.388,146.207 188.087 C 145.818 189.687,145.072 191.931,144.550 193.073 C 143.795 194.722,143.599 195.831,143.595 198.474 C 143.590 201.187,143.361 202.426,142.349 205.200 C 141.666 207.070,140.976 209.860,140.814 211.400 C 140.649 212.971,140.031 215.341,139.407 216.800 C 138.519 218.874,138.238 220.291,138.017 223.800 C 137.799 227.252,137.497 228.803,136.613 231.000 C 135.956 232.633,135.354 235.095,135.170 236.906 C 134.956 239.003,134.487 240.757,133.726 242.306 L 132.600 244.600 132.483 264.471 C 132.352 286.609,132.305 286.172,135.026 288.247 L 136.538 289.400 156.569 289.400 C 176.146 289.400,176.632 289.381,177.997 288.568 C 181.010 286.771,180.880 287.959,180.943 261.815 L 181.000 238.452 182.175 237.226 C 182.821 236.552,183.631 235.999,183.975 235.998 C 188.870 235.980,188.690 237.010,188.857 207.985 L 189.000 182.971 188.000 181.723 C 186.118 179.375,186.386 179.409,169.000 179.298 L 153.000 179.196 151.085 180.408 M194.428 179.883 C 191.225 181.558,191.395 180.142,191.442 204.737 C 191.494 232.086,190.966 230.492,200.000 230.564 C 208.928 230.634,208.620 231.584,208.503 204.403 C 208.402 180.764,208.566 182.257,205.847 180.225 C 204.263 179.040,196.485 178.808,194.428 179.883 M215.200 179.572 C 210.808 180.450,211.000 179.146,211.000 208.071 C 211.000 236.630,210.647 234.296,215.200 235.877 C 219.365 237.324,218.973 234.769,219.200 261.914 C 219.422 288.423,219.261 286.975,222.153 288.469 C 224.419 289.638,263.169 289.836,264.923 288.687 C 267.750 286.835,267.757 286.777,267.780 265.000 L 267.800 245.400 266.453 242.425 C 265.599 240.539,264.966 238.342,264.725 236.425 C 264.516 234.761,263.895 232.230,263.345 230.800 C 262.605 228.876,262.285 227.108,262.116 224.000 C 261.947 220.893,261.652 219.265,260.985 217.744 C 259.927 215.332,259.661 214.214,259.405 211.096 C 259.300 209.823,258.682 207.539,258.024 205.993 C 257.241 204.152,256.737 202.133,256.553 200.097 C 256.362 197.975,255.900 196.181,255.088 194.400 C 254.261 192.588,253.841 190.933,253.701 188.940 C 253.413 184.841,252.003 182.208,249.182 180.500 L 247.035 179.200 231.818 179.246 C 223.448 179.271,215.970 179.418,215.200 179.572 M186.190 182.071 C 187.431 183.514,187.775 192.074,187.510 215.005 C 187.283 234.782,187.642 233.416,182.241 235.049 C 179.369 235.918,179.476 234.908,179.532 260.474 C 179.587 285.833,179.599 285.701,177.200 286.899 C 175.472 287.763,138.821 287.984,136.417 287.146 C 134.019 286.310,134.000 286.134,134.000 264.787 L 134.000 245.548 135.350 242.625 C 136.334 240.495,136.768 238.892,136.947 236.720 C 137.207 233.571,137.578 232.197,138.831 229.740 C 139.427 228.570,139.600 227.392,139.600 224.493 C 139.600 221.132,139.741 220.414,141.000 217.373 C 142.101 214.713,142.400 213.445,142.400 211.436 C 142.400 209.330,142.622 208.470,143.663 206.541 C 144.806 204.422,144.952 203.744,145.205 199.400 C 145.437 195.421,145.657 194.258,146.492 192.600 C 147.046 191.500,147.776 189.378,148.114 187.885 C 148.817 184.775,149.451 183.655,151.292 182.267 C 153.179 180.845,152.782 180.874,169.735 180.940 L 185.270 181.000 186.190 182.071 M205.505 182.123 L 206.600 183.218 206.724 202.909 C 206.898 230.468,207.177 229.408,199.818 229.136 C 193.598 228.906,192.523 227.631,192.977 221.024 C 193.338 215.772,193.339 200.406,192.979 191.800 C 192.551 181.579,193.174 180.679,200.505 180.907 C 204.149 181.021,204.484 181.102,205.505 182.123 M248.279 181.700 C 250.761 183.057,251.657 184.786,252.011 188.899 C 252.250 191.692,252.598 193.140,253.429 194.800 C 254.214 196.372,254.615 197.947,254.832 200.315 C 255.059 202.806,255.430 204.198,256.324 205.915 C 257.202 207.602,257.591 209.037,257.811 211.400 C 257.993 213.356,258.543 215.688,259.225 217.400 C 260.119 219.642,260.380 221.037,260.531 224.400 C 260.688 227.886,260.907 229.001,261.816 230.957 C 262.539 232.513,263.023 234.421,263.241 236.570 C 263.480 238.924,263.935 240.597,264.885 242.613 L 266.200 245.400 266.122 265.137 C 266.036 286.652,266.070 286.337,263.753 287.218 C 261.977 287.893,224.641 287.711,222.985 287.019 C 220.730 286.077,220.744 286.236,220.601 260.737 C 220.452 234.471,220.653 236.049,217.302 234.803 C 211.907 232.797,212.285 234.921,212.351 207.022 L 212.407 183.444 213.282 182.513 C 214.739 180.962,216.033 180.851,231.800 180.927 C 245.432 180.992,247.132 181.072,248.279 181.700 " stroke="none" fill="#c4e8b5" fill-rule="evenodd"></path><path id="path3" d="M188.200 116.686 C 177.561 117.100,174.237 117.487,172.400 118.525 C 171.255 119.172,169.436 119.700,167.400 119.977 C 165.640 120.217,163.300 120.851,162.200 121.385 C 161.100 121.919,159.437 122.471,158.505 122.612 C 157.573 122.753,156.133 123.328,155.305 123.890 C 154.477 124.452,152.823 125.248,151.628 125.659 C 150.433 126.070,149.148 126.685,148.773 127.025 C 148.397 127.365,147.135 128.006,145.968 128.449 C 144.801 128.893,143.358 129.603,142.761 130.028 C 142.165 130.452,141.550 130.800,141.396 130.800 C 141.241 130.800,140.210 131.520,139.105 132.400 C 138.000 133.280,136.850 134.000,136.549 134.000 C 136.248 134.000,135.305 134.630,134.453 135.400 C 133.600 136.170,132.735 136.800,132.530 136.800 C 132.325 136.800,130.547 138.147,128.579 139.793 C 123.957 143.659,124.109 143.521,121.972 145.827 C 120.967 146.912,118.987 148.865,117.572 150.166 C 116.157 151.467,114.662 153.087,114.250 153.766 C 113.837 154.445,112.937 155.647,112.250 156.439 C 111.562 157.230,110.370 158.656,109.600 159.607 C 108.830 160.559,107.727 161.801,107.149 162.368 C 106.572 162.936,105.875 164.120,105.601 165.000 C 105.327 165.880,104.680 167.055,104.162 167.611 C 103.644 168.168,103.012 169.219,102.758 169.949 C 102.294 171.280,100.386 174.421,98.760 176.531 C 98.280 177.153,97.662 178.743,97.387 180.065 C 97.056 181.650,96.520 182.849,95.811 183.589 C 94.956 184.481,94.662 185.303,94.372 187.614 C 94.136 189.494,93.643 191.139,92.974 192.281 C 92.391 193.276,91.760 195.212,91.528 196.722 C 91.301 198.195,90.658 200.480,90.098 201.800 C 87.552 207.807,87.491 246.634,90.020 250.953 C 90.422 251.639,90.964 253.460,91.225 255.000 C 91.741 258.043,92.096 258.956,93.263 260.239 C 93.783 260.812,94.135 262.058,94.372 264.170 C 94.629 266.459,94.942 267.500,95.580 268.179 C 96.054 268.683,96.771 270.182,97.173 271.509 C 97.891 273.882,100.092 277.906,101.887 280.131 C 102.389 280.753,102.800 281.617,102.800 282.051 C 102.800 283.111,103.833 285.050,104.544 285.323 C 104.859 285.444,105.418 286.450,105.786 287.558 C 106.270 289.014,107.196 290.336,109.128 292.326 C 110.597 293.840,112.430 296.026,113.200 297.183 C 113.970 298.341,116.670 301.356,119.200 303.884 C 123.278 307.958,125.210 309.657,129.127 312.609 C 129.717 313.054,130.759 313.954,131.442 314.609 C 132.125 315.264,133.295 316.213,134.042 316.719 C 137.371 318.971,139.443 320.284,141.428 321.400 C 142.601 322.060,144.965 323.476,146.681 324.546 C 148.459 325.655,150.790 326.729,152.102 327.042 C 153.369 327.344,155.079 328.034,155.902 328.575 C 156.732 329.119,158.342 329.680,159.512 329.832 C 160.797 329.999,162.293 330.550,163.336 331.241 C 164.504 332.014,165.804 332.459,167.424 332.638 C 168.731 332.782,170.700 333.343,171.800 333.885 C 174.576 335.252,179.039 335.636,193.200 335.725 C 212.785 335.849,220.966 335.319,223.400 333.769 C 223.840 333.489,225.506 332.993,227.103 332.666 C 228.699 332.340,230.772 331.623,231.710 331.074 C 232.648 330.524,234.482 329.877,235.787 329.636 C 237.339 329.349,238.517 328.855,239.195 328.204 C 239.821 327.605,241.045 327.057,242.283 326.822 C 244.244 326.450,247.694 324.673,249.404 323.155 C 249.846 322.762,251.196 322.000,252.404 321.461 C 255.775 319.957,259.756 317.505,262.569 315.200 C 263.240 314.650,264.236 313.840,264.783 313.400 C 265.329 312.960,266.231 312.142,266.788 311.583 C 267.345 311.023,268.430 310.178,269.200 309.705 C 270.811 308.715,280.000 299.455,280.000 298.822 C 280.000 297.963,279.180 298.455,277.117 300.551 C 275.953 301.734,274.640 302.815,274.200 302.953 C 273.437 303.193,271.237 305.149,269.300 307.309 C 268.804 307.862,267.992 308.416,267.494 308.541 C 266.997 308.665,264.899 309.882,262.832 311.243 C 255.993 315.749,248.395 319.859,243.317 321.800 C 241.823 322.371,239.471 323.279,238.092 323.819 C 236.713 324.359,235.243 324.800,234.825 324.800 C 234.408 324.800,233.263 325.144,232.282 325.565 C 231.300 325.986,229.440 326.506,228.149 326.722 C 226.857 326.937,225.260 327.300,224.600 327.528 C 223.439 327.930,220.200 328.489,214.800 329.219 C 203.736 330.714,186.943 329.927,176.000 327.400 C 174.570 327.070,172.500 326.692,171.400 326.562 C 170.300 326.431,168.500 326.003,167.400 325.610 C 164.900 324.717,163.471 324.214,159.241 322.742 C 156.297 321.718,153.975 320.716,148.400 318.066 C 147.630 317.700,146.491 316.995,145.869 316.500 C 145.247 316.005,144.384 315.600,143.950 315.600 C 143.517 315.600,142.765 315.183,142.281 314.672 C 141.796 314.162,140.320 313.144,139.000 312.409 C 137.680 311.675,135.880 310.510,135.000 309.821 C 134.120 309.133,132.674 308.251,131.786 307.863 C 130.898 307.474,129.259 306.221,128.143 305.078 C 125.555 302.428,118.083 295.497,117.376 295.091 C 117.081 294.921,115.814 293.242,114.562 291.360 C 113.310 289.478,111.681 287.215,110.943 286.331 C 110.204 285.447,109.600 284.589,109.600 284.424 C 109.600 284.259,109.136 283.601,108.569 282.962 C 107.422 281.668,104.000 276.650,104.000 276.261 C 104.000 276.124,102.653 273.263,101.006 269.903 C 99.359 266.543,97.843 262.986,97.637 261.997 C 97.431 261.009,96.618 258.628,95.831 256.707 C 95.044 254.786,94.397 252.896,94.393 252.507 C 94.388 252.118,93.938 250.100,93.393 248.021 C 92.847 245.943,92.400 243.209,92.400 241.947 C 92.400 240.685,92.229 239.202,92.020 238.651 C 91.141 236.342,90.764 226.503,91.360 221.458 C 91.676 218.786,92.054 215.378,92.201 213.884 C 92.347 212.389,93.099 208.699,93.870 205.684 C 94.642 202.668,95.508 199.210,95.793 198.000 C 96.700 194.163,102.444 181.528,104.984 177.785 C 105.543 176.962,106.000 176.047,106.000 175.752 C 106.000 175.457,107.561 173.277,109.468 170.908 C 111.376 168.538,113.935 165.250,115.156 163.600 C 117.741 160.107,121.446 156.317,125.400 153.121 C 126.940 151.876,129.280 149.842,130.600 148.601 C 131.920 147.360,133.509 146.075,134.131 145.746 C 134.753 145.417,136.033 144.574,136.976 143.874 C 138.991 142.376,140.282 141.619,144.600 139.402 C 153.530 134.818,156.101 133.600,156.851 133.600 C 157.165 133.600,157.824 133.319,158.314 132.975 C 158.805 132.631,160.780 131.896,162.703 131.341 C 164.627 130.786,166.830 130.048,167.600 129.700 C 168.370 129.352,170.530 128.756,172.400 128.375 C 174.270 127.994,177.117 127.394,178.726 127.041 C 180.336 126.688,182.325 126.400,183.146 126.400 C 183.968 126.400,184.850 126.190,185.108 125.932 C 185.747 125.293,209.737 125.294,214.400 125.933 C 220.059 126.709,224.533 127.500,225.800 127.950 C 226.460 128.184,230.150 129.310,234.000 130.451 C 237.850 131.592,241.720 132.850,242.600 133.245 C 243.480 133.641,245.778 134.692,247.708 135.582 C 249.637 136.472,251.305 137.200,251.415 137.200 C 251.524 137.200,252.916 137.978,254.507 138.929 C 256.098 139.880,259.470 141.891,262.000 143.399 C 266.684 146.190,269.067 147.986,272.357 151.201 C 273.371 152.192,274.718 153.336,275.352 153.744 C 277.182 154.924,278.800 156.485,278.800 157.073 C 278.800 157.370,279.385 157.900,280.100 158.250 C 280.815 158.600,282.210 159.892,283.200 161.120 C 284.190 162.347,286.215 164.855,287.700 166.693 C 289.185 168.530,290.400 170.184,290.400 170.368 C 290.400 170.552,290.700 170.949,291.066 171.251 C 292.304 172.271,291.391 168.837,290.051 167.434 C 289.403 166.755,288.682 165.491,288.448 164.625 C 288.214 163.759,287.662 162.679,287.220 162.225 C 285.173 160.123,281.389 155.609,280.157 153.800 C 279.408 152.700,277.671 150.850,276.297 149.690 C 274.924 148.529,273.080 146.706,272.200 145.639 C 271.320 144.572,269.880 143.230,269.000 142.657 C 268.120 142.084,265.780 140.164,263.800 138.389 C 261.820 136.615,259.480 134.793,258.600 134.341 C 257.720 133.888,256.010 132.872,254.800 132.084 C 250.268 129.129,249.761 128.851,248.118 128.420 C 247.193 128.178,245.933 127.558,245.318 127.043 C 244.703 126.529,243.174 125.811,241.920 125.449 C 240.667 125.086,239.529 124.609,239.393 124.389 C 239.019 123.784,236.138 122.400,235.253 122.400 C 234.824 122.400,233.565 121.928,232.454 121.352 C 231.050 120.624,229.414 120.201,227.090 119.965 C 224.736 119.726,222.981 119.268,221.163 118.418 C 217.639 116.768,204.205 116.062,188.200 116.686 M293.607 174.500 C 293.614 174.936,294.451 176.343,296.315 179.052 C 296.773 179.719,296.803 179.670,296.593 178.600 C 296.463 177.940,296.124 177.220,295.840 177.000 C 295.555 176.780,295.021 176.015,294.651 175.300 C 293.945 173.933,293.595 173.665,293.607 174.500 M284.744 291.987 C 283.968 292.634,283.922 292.776,284.486 292.787 C 284.863 292.794,285.365 292.440,285.600 292.000 C 286.138 290.995,285.939 290.991,284.744 291.987 M191.127 427.157 C 191.223 428.161,190.985 429.252,190.437 430.328 C 188.084 434.940,189.667 436.800,195.942 436.800 C 201.039 436.800,201.337 436.590,201.082 433.178 C 200.664 427.584,200.197 427.012,196.032 426.991 C 193.875 426.980,192.709 426.781,191.991 426.301 L 190.981 425.627 191.127 427.157 " stroke="none" fill="#c4fba3" fill-rule="evenodd"></path><path id="path4" d="M180.600 80.133 C 179.940 80.392,178.590 81.040,177.600 81.571 C 175.944 82.460,175.337 82.540,170.000 82.569 C 164.248 82.600,164.182 82.610,162.000 83.863 C 160.161 84.919,159.210 85.171,156.200 85.403 C 154.220 85.555,152.060 85.954,151.400 86.288 C 144.933 89.566,142.662 90.555,140.602 90.988 C 138.433 91.445,135.514 92.704,131.600 94.870 C 130.830 95.296,129.076 96.167,127.701 96.805 C 126.327 97.443,124.347 98.757,123.301 99.724 C 122.085 100.849,119.526 102.388,116.200 103.994 L 111.000 106.505 95.600 121.953 C 81.857 135.738,80.127 137.615,79.519 139.400 C 79.074 140.705,78.147 142.095,76.851 143.400 C 75.644 144.615,74.535 146.235,74.027 147.528 C 73.566 148.698,72.130 150.887,70.835 152.392 C 69.486 153.959,68.356 155.699,68.190 156.464 C 68.031 157.199,67.557 158.286,67.137 158.881 C 66.717 159.475,65.918 160.991,65.361 162.250 C 64.804 163.509,64.014 164.965,63.604 165.485 C 63.156 166.055,62.750 167.457,62.584 169.010 C 62.395 170.773,61.966 172.128,61.227 173.294 C 60.633 174.232,59.927 175.630,59.660 176.400 C 59.392 177.170,58.693 178.520,58.107 179.400 C 57.202 180.757,57.005 181.580,56.804 184.819 C 56.598 188.166,56.415 188.887,55.325 190.659 C 54.207 192.475,54.067 193.061,53.941 196.447 C 53.811 199.912,53.696 200.372,52.500 202.176 L 51.200 204.137 51.200 226.136 L 51.200 248.135 52.466 250.368 C 53.649 252.452,53.751 252.947,54.012 257.849 C 54.295 263.191,54.385 263.592,55.621 265.000 C 56.024 265.459,56.517 267.078,56.779 268.800 C 57.082 270.793,57.573 272.290,58.244 273.260 C 58.908 274.221,59.400 275.703,59.680 277.593 C 59.983 279.633,60.393 280.805,61.094 281.639 C 61.638 282.285,62.328 283.629,62.628 284.626 C 62.928 285.624,63.543 286.959,63.995 287.593 C 64.447 288.228,65.076 289.482,65.393 290.380 C 65.710 291.278,66.404 292.595,66.935 293.306 C 67.466 294.018,68.128 295.308,68.406 296.173 C 68.683 297.038,69.425 298.558,70.055 299.551 C 70.685 300.544,71.200 301.654,71.200 302.018 C 71.200 302.731,72.678 304.834,74.981 307.400 C 75.771 308.280,76.593 309.630,76.808 310.400 C 77.183 311.746,79.321 314.207,83.295 317.867 C 84.729 319.188,85.209 319.976,85.611 321.667 C 86.112 323.778,86.413 324.096,114.159 351.902 C 129.581 367.358,151.856 389.703,163.657 401.557 C 183.564 421.553,185.276 423.171,187.355 423.949 C 188.587 424.410,190.361 425.283,191.298 425.890 C 194.180 427.757,200.255 427.458,204.592 425.236 C 206.348 424.336,207.984 423.600,208.227 423.600 C 208.671 423.600,221.234 411.216,238.882 393.382 C 244.097 388.112,251.747 380.433,255.882 376.317 C 293.940 338.436,305.459 326.590,305.973 324.802 C 306.590 322.659,308.482 319.905,309.835 319.181 C 311.769 318.146,317.116 312.172,317.623 310.480 C 317.893 309.579,319.238 307.508,320.654 305.811 C 322.054 304.133,323.200 302.445,323.200 302.059 C 323.200 301.673,323.763 300.469,324.451 299.384 C 325.139 298.299,325.945 296.722,326.243 295.879 C 326.540 295.037,327.139 293.848,327.573 293.238 C 328.008 292.627,328.738 291.126,329.197 289.900 C 329.655 288.675,330.284 287.462,330.595 287.204 C 330.905 286.947,331.370 286.075,331.627 285.268 C 331.885 284.461,332.608 282.888,333.236 281.772 C 333.937 280.526,334.480 278.830,334.647 277.372 C 334.833 275.746,335.267 274.497,336.030 273.400 C 336.813 272.272,337.273 270.918,337.588 268.812 C 337.834 267.169,338.274 265.549,338.566 265.212 C 339.958 263.607,340.179 262.491,340.388 255.993 L 340.600 249.386 341.911 247.408 L 343.222 245.430 343.111 225.985 L 343.000 206.541 341.815 204.770 C 340.693 203.094,340.619 202.724,340.413 197.800 C 340.199 192.685,339.920 191.543,338.480 189.893 C 338.061 189.412,337.768 187.849,337.565 185.014 C 337.302 181.321,337.133 180.645,336.094 179.121 C 335.449 178.175,334.793 176.874,334.635 176.230 C 334.478 175.587,333.830 174.327,333.195 173.430 C 332.330 172.208,331.976 171.149,331.781 169.200 C 331.592 167.309,331.221 166.164,330.420 165.000 C 329.815 164.120,329.190 162.860,329.031 162.200 C 328.873 161.540,328.218 160.177,327.576 159.171 C 326.934 158.165,326.193 156.725,325.931 155.971 C 325.668 155.217,324.342 153.325,322.984 151.768 C 321.378 149.926,320.422 148.444,320.251 147.532 C 320.083 146.637,319.138 145.145,317.643 143.416 C 316.353 141.925,315.092 140.018,314.841 139.178 C 314.516 138.095,313.515 136.851,311.392 134.895 C 308.713 132.426,308.400 131.985,308.400 130.669 C 308.400 128.268,297.630 117.881,294.384 117.152 C 292.141 116.648,290.895 115.750,289.638 113.731 C 288.261 111.518,284.773 108.545,283.130 108.185 C 282.286 107.999,280.830 106.888,278.866 104.931 C 275.706 101.781,273.243 99.907,271.600 99.402 C 271.050 99.233,270.150 98.780,269.600 98.395 C 269.050 98.010,267.520 97.157,266.200 96.500 C 264.880 95.843,262.000 94.411,259.800 93.317 C 257.556 92.202,254.940 91.213,253.840 91.064 C 252.762 90.918,251.412 90.546,250.840 90.236 C 245.071 87.116,241.734 85.640,239.901 85.398 C 238.746 85.246,236.720 84.569,235.400 83.895 C 233.107 82.724,232.731 82.661,227.000 82.487 C 221.175 82.310,220.918 82.265,218.201 80.952 L 215.403 79.600 198.601 79.630 C 186.704 79.652,181.450 79.799,180.600 80.133 M217.372 82.556 C 219.649 83.750,219.988 83.808,225.772 84.000 C 231.091 84.176,231.967 84.304,233.222 85.084 C 234.024 85.584,235.940 86.165,237.622 86.421 C 240.536 86.864,246.780 89.474,249.197 91.261 C 249.749 91.668,251.468 92.266,253.018 92.589 C 255.029 93.008,258.121 94.326,263.818 97.193 C 271.886 101.252,273.542 102.327,276.800 105.619 C 279.100 107.942,281.063 109.377,282.680 109.917 C 284.610 110.562,287.447 112.835,288.161 114.309 C 288.761 115.547,293.163 118.787,294.257 118.796 C 294.780 118.801,295.200 119.709,295.200 120.833 C 295.200 121.436,295.486 121.600,296.536 121.600 C 297.572 121.600,297.974 121.824,298.327 122.600 C 298.578 123.150,298.956 123.600,299.167 123.600 C 299.378 123.600,300.417 124.324,301.476 125.209 C 302.534 126.094,303.625 127.001,303.900 127.225 C 304.175 127.449,304.400 128.046,304.400 128.552 C 304.400 129.145,304.755 129.633,305.400 129.927 C 306.070 130.232,306.400 130.706,306.400 131.361 C 306.400 131.993,306.844 132.668,307.655 133.270 C 310.184 135.144,312.798 138.207,313.399 140.000 C 313.731 140.990,314.666 142.520,315.477 143.400 C 317.593 145.695,318.800 147.579,318.800 148.586 C 318.800 149.080,319.901 150.754,321.328 152.430 C 323.560 155.052,328.006 162.899,328.001 164.207 C 328.001 164.431,328.447 165.272,328.993 166.075 C 329.623 167.003,330.082 168.388,330.250 169.868 C 330.396 171.151,330.825 172.650,331.204 173.200 C 333.968 177.210,335.695 181.789,335.959 185.811 C 336.197 189.419,336.341 189.976,337.394 191.357 C 338.499 192.805,338.580 193.178,338.841 197.952 C 339.090 202.509,339.239 203.253,340.340 205.419 L 341.563 207.826 341.674 226.047 L 341.786 244.269 340.393 247.012 C 339.020 249.716,338.997 249.845,338.794 255.978 C 338.603 261.720,338.515 262.298,337.644 263.466 C 337.015 264.309,336.530 265.794,336.191 267.913 C 335.840 270.102,335.335 271.618,334.571 272.772 C 333.884 273.811,333.342 275.318,333.149 276.730 C 332.873 278.745,331.447 282.172,328.793 287.200 C 328.386 287.970,327.570 289.590,326.979 290.800 C 324.529 295.814,323.606 297.549,323.284 297.748 C 323.097 297.864,322.600 298.970,322.180 300.207 C 321.707 301.598,320.616 303.397,319.316 304.927 C 318.161 306.287,316.695 308.480,316.059 309.800 C 315.164 311.656,313.817 313.243,310.117 316.800 C 306.468 320.307,305.197 321.799,304.766 323.079 C 303.892 325.673,293.344 336.608,251.400 378.400 C 240.615 389.146,233.843 395.925,221.948 407.878 C 207.848 422.048,207.657 422.220,203.948 424.105 C 199.593 426.318,195.390 426.857,193.000 425.508 C 192.340 425.136,190.720 424.312,189.400 423.677 C 187.247 422.641,179.838 415.657,171.000 406.332 C 170.560 405.868,169.267 404.568,168.127 403.444 C 166.987 402.320,165.071 400.410,163.868 399.200 C 162.665 397.990,161.077 396.457,160.340 395.793 C 159.603 395.129,157.637 393.149,155.971 391.393 C 154.305 389.637,152.055 387.340,150.971 386.288 C 149.887 385.237,148.782 384.157,148.515 383.888 C 135.955 371.232,132.040 367.314,127.400 362.757 C 120.296 355.780,122.363 357.857,106.475 341.731 C 88.579 323.566,87.630 322.517,87.607 320.867 C 87.599 320.247,84.880 316.765,84.000 316.247 C 82.627 315.440,79.017 311.277,78.312 309.688 C 77.894 308.746,76.482 306.699,75.176 305.139 C 73.869 303.578,72.800 302.069,72.800 301.784 C 72.800 301.499,72.170 300.079,71.400 298.627 C 70.630 297.176,70.000 295.748,70.000 295.454 C 70.000 295.160,69.432 294.136,68.738 293.178 C 68.044 292.220,67.056 290.365,66.543 289.055 C 66.030 287.746,65.352 286.388,65.036 286.037 C 64.721 285.687,64.336 284.860,64.182 284.200 C 64.029 283.540,63.377 282.163,62.736 281.141 C 62.027 280.012,61.409 278.291,61.163 276.764 C 60.940 275.380,60.228 273.281,59.580 272.100 C 58.866 270.800,58.303 269.055,58.151 267.677 C 58.003 266.335,57.445 264.579,56.793 263.400 C 55.811 261.627,55.664 260.879,55.496 256.800 C 55.321 252.533,55.210 252.016,53.961 249.650 L 52.615 247.100 52.607 227.050 C 52.598 206.017,52.662 205.088,54.263 202.736 C 55.095 201.513,55.308 200.590,55.555 197.135 C 55.800 193.702,56.031 192.689,56.918 191.177 C 57.809 189.656,58.014 188.749,58.157 185.701 C 58.309 182.462,58.463 181.852,59.510 180.324 C 60.159 179.376,60.824 178.150,60.987 177.600 C 61.150 177.050,61.895 175.491,62.642 174.135 C 63.574 172.444,64.000 171.147,64.000 170.005 C 64.000 168.836,64.476 167.437,65.600 165.303 C 66.480 163.633,67.200 162.125,67.200 161.951 C 67.200 161.777,67.639 160.989,68.175 160.198 C 68.712 159.407,69.369 158.095,69.635 157.280 C 69.901 156.466,71.147 154.527,72.405 152.971 C 73.662 151.415,74.904 149.498,75.164 148.710 C 75.424 147.922,76.663 146.114,77.919 144.692 C 79.174 143.271,80.453 141.408,80.761 140.554 C 81.513 138.471,84.174 135.240,88.136 131.600 C 89.932 129.950,95.092 124.861,99.601 120.291 C 104.110 115.721,108.836 111.225,110.102 110.299 C 111.368 109.373,112.497 108.326,112.609 107.970 C 112.722 107.615,114.919 106.381,117.492 105.227 C 121.005 103.652,122.741 102.600,124.466 101.003 C 126.014 99.570,127.454 98.652,128.881 98.188 C 130.047 97.810,131.360 97.175,131.800 96.779 C 132.240 96.382,133.680 95.662,135.000 95.177 C 136.320 94.693,137.700 94.035,138.067 93.716 C 138.435 93.396,140.145 92.775,141.867 92.335 C 143.590 91.895,145.270 91.292,145.601 90.995 C 147.667 89.139,153.443 87.090,157.427 86.800 C 161.411 86.510,162.387 86.216,164.472 84.680 C 165.426 83.978,166.001 83.913,169.672 84.093 C 174.191 84.315,177.020 83.812,179.800 82.291 C 181.992 81.093,185.750 80.893,201.800 81.123 L 215.000 81.312 217.372 82.556 M190.173 115.619 C 188.837 115.793,184.677 116.136,180.927 116.380 C 173.844 116.842,172.166 117.137,170.531 118.209 C 169.996 118.559,168.026 119.093,166.152 119.397 C 164.277 119.700,162.082 120.292,161.272 120.713 C 160.462 121.133,158.810 121.707,157.600 121.987 C 156.390 122.268,154.950 122.910,154.400 123.415 C 153.850 123.920,152.363 124.632,151.095 124.996 C 149.828 125.361,148.286 126.084,147.668 126.604 C 147.051 127.123,146.018 127.677,145.373 127.834 C 144.058 128.154,137.600 131.910,137.600 132.355 C 137.600 132.512,136.790 133.034,135.800 133.515 C 134.810 133.996,134.000 134.569,134.000 134.788 C 134.000 135.007,133.145 135.621,132.100 136.152 C 131.055 136.683,129.534 137.721,128.719 138.459 C 127.905 139.196,126.567 140.340,125.746 141.000 C 124.925 141.660,123.395 143.100,122.345 144.200 C 119.365 147.324,116.039 150.489,115.140 151.057 C 114.842 151.246,113.948 152.390,113.154 153.600 C 112.360 154.810,110.156 157.571,108.255 159.735 C 106.355 161.899,104.800 163.952,104.800 164.297 C 104.800 164.642,104.368 165.491,103.840 166.183 C 103.312 166.875,102.206 168.782,101.382 170.421 C 100.558 172.059,99.253 174.293,98.482 175.384 C 97.711 176.476,96.822 178.366,96.508 179.584 C 96.193 180.803,95.497 182.263,94.960 182.830 C 94.286 183.541,93.855 184.654,93.564 186.430 C 93.333 187.843,92.698 190.033,92.152 191.295 C 91.606 192.557,90.994 194.606,90.792 195.849 C 90.590 197.092,90.063 198.802,89.620 199.651 C 88.689 201.438,88.172 204.499,87.808 210.400 C 87.665 212.710,87.385 215.230,87.186 216.000 C 86.469 218.769,86.305 231.806,86.950 234.720 C 87.276 236.194,87.735 240.145,87.969 243.501 C 88.313 248.435,88.587 250.076,89.401 252.079 C 89.955 253.442,90.570 255.557,90.769 256.779 C 90.967 258.000,91.685 260.053,92.365 261.341 C 93.140 262.809,93.600 264.268,93.600 265.257 C 93.600 266.775,94.770 269.687,95.582 270.189 C 95.799 270.323,96.340 271.656,96.786 273.152 C 97.231 274.648,97.957 276.199,98.398 276.598 C 98.839 276.997,99.200 277.539,99.200 277.802 C 99.200 278.065,99.760 279.053,100.444 279.997 C 101.128 280.941,101.962 282.543,102.298 283.557 C 102.633 284.571,103.223 285.760,103.609 286.200 C 103.994 286.640,104.691 287.760,105.157 288.688 C 105.623 289.617,107.128 291.536,108.502 292.954 C 109.876 294.371,111.720 296.670,112.600 298.063 C 114.111 300.454,121.661 308.210,124.874 310.671 C 128.103 313.144,129.500 314.268,131.800 316.238 C 133.120 317.370,134.830 318.610,135.600 318.994 C 136.370 319.379,137.362 320.024,137.805 320.428 C 138.248 320.831,139.323 321.459,140.193 321.823 C 141.063 322.186,142.230 322.839,142.787 323.274 C 145.407 325.318,148.288 326.778,150.836 327.354 C 152.363 327.699,154.005 328.346,154.485 328.793 C 155.425 329.669,157.570 330.394,159.231 330.398 C 159.799 330.399,161.059 330.925,162.031 331.567 C 163.134 332.295,164.779 332.902,166.400 333.180 C 167.830 333.425,169.903 334.070,171.006 334.613 C 172.732 335.463,173.900 335.655,179.406 335.994 C 182.923 336.210,188.173 336.692,191.072 337.064 C 196.024 337.699,196.669 337.699,201.672 337.063 C 204.603 336.691,210.345 336.228,214.434 336.034 C 221.187 335.713,222.049 335.589,223.847 334.677 C 224.936 334.126,226.991 333.451,228.413 333.179 C 229.836 332.906,231.720 332.271,232.600 331.768 C 233.480 331.264,235.100 330.635,236.200 330.369 C 238.468 329.820,239.620 329.299,240.200 328.560 C 240.420 328.279,241.770 327.753,243.200 327.389 C 245.627 326.773,247.374 325.893,250.515 323.704 C 251.222 323.212,252.880 322.270,254.200 321.611 C 257.783 319.824,261.642 317.323,263.043 315.880 C 263.726 315.176,265.686 313.520,267.397 312.200 C 272.144 308.538,273.626 307.275,274.539 306.114 C 275.000 305.528,276.672 303.778,278.256 302.225 C 279.839 300.671,281.824 298.388,282.667 297.150 C 283.510 295.913,285.053 293.916,286.094 292.714 C 287.136 291.511,288.357 289.694,288.807 288.677 C 289.257 287.660,289.963 286.591,290.375 286.303 C 290.787 286.014,291.637 284.767,292.262 283.533 C 292.888 282.299,294.236 280.037,295.258 278.506 C 296.280 276.975,297.445 274.615,297.847 273.262 C 298.248 271.908,298.717 270.800,298.889 270.800 C 299.060 270.800,299.200 270.549,299.200 270.243 C 299.200 269.936,299.455 269.588,299.767 269.468 C 300.079 269.348,300.786 267.844,301.339 266.125 C 301.892 264.406,302.616 262.190,302.947 261.200 C 305.002 255.060,306.527 249.667,306.876 247.313 C 308.766 234.547,309.028 222.895,307.640 213.400 C 307.447 212.080,307.101 209.549,306.870 207.774 C 306.373 203.943,305.319 199.227,304.826 198.628 C 304.632 198.392,304.289 197.195,304.063 195.967 C 303.837 194.738,303.094 192.515,302.412 191.026 C 301.729 189.534,301.275 187.995,301.401 187.598 C 301.633 186.865,300.955 185.427,299.070 182.660 C 298.493 181.813,297.915 180.463,297.785 179.660 C 297.442 177.536,297.054 176.744,295.082 174.139 C 293.153 171.592,292.000 169.552,292.000 168.690 C 292.000 168.387,291.555 167.721,291.010 167.209 C 290.466 166.698,289.713 165.452,289.339 164.440 C 288.964 163.428,287.654 161.461,286.429 160.070 C 285.203 158.678,283.660 156.779,283.000 155.850 C 280.943 152.955,279.026 150.716,278.379 150.453 C 278.037 150.314,276.178 148.445,274.247 146.300 C 272.317 144.155,270.589 142.400,270.409 142.400 C 270.228 142.400,268.611 141.185,266.816 139.700 C 265.020 138.215,262.842 136.493,261.976 135.874 C 261.109 135.254,260.400 134.606,260.400 134.434 C 260.400 134.262,259.635 133.788,258.700 133.381 C 257.765 132.973,256.730 132.396,256.400 132.097 C 254.920 130.760,250.152 128.042,248.860 127.800 C 248.077 127.653,246.924 127.102,246.299 126.576 C 245.674 126.050,244.280 125.358,243.203 125.038 C 242.125 124.718,240.739 124.084,240.122 123.630 C 239.505 123.176,237.928 122.429,236.617 121.970 C 235.306 121.510,233.746 120.882,233.150 120.574 C 232.555 120.266,230.477 119.755,228.534 119.437 C 226.590 119.120,224.010 118.404,222.800 117.847 C 220.934 116.988,219.629 116.768,214.200 116.398 C 210.680 116.158,206.720 115.792,205.400 115.584 C 202.593 115.142,193.668 115.162,190.173 115.619 M210.390 116.812 C 218.263 117.194,218.681 117.256,221.163 118.418 C 222.981 119.268,224.736 119.726,227.090 119.965 C 229.414 120.201,231.050 120.624,232.454 121.352 C 233.565 121.928,234.824 122.400,235.253 122.400 C 236.138 122.400,239.019 123.784,239.393 124.389 C 239.529 124.609,240.667 125.086,241.920 125.449 C 243.174 125.811,244.703 126.529,245.318 127.043 C 245.933 127.558,247.193 128.178,248.118 128.420 C 249.761 128.851,250.268 129.129,254.800 132.084 C 256.010 132.872,257.720 133.888,258.600 134.341 C 259.480 134.793,261.820 136.615,263.800 138.389 C 265.780 140.164,268.120 142.084,269.000 142.657 C 269.880 143.230,271.320 144.572,272.200 145.639 C 273.080 146.706,274.924 148.529,276.297 149.690 C 277.671 150.850,279.408 152.700,280.157 153.800 C 281.389 155.609,285.173 160.123,287.220 162.225 C 287.662 162.679,288.214 163.759,288.448 164.625 C 288.682 165.491,289.395 166.747,290.033 167.415 C 290.768 168.186,291.321 169.321,291.545 170.517 C 291.787 171.814,292.229 172.665,292.957 173.237 C 293.539 173.696,294.310 174.640,294.669 175.335 C 295.029 176.031,295.569 176.780,295.870 177.001 C 296.171 177.221,296.569 178.301,296.755 179.401 C 297.182 181.922,297.694 183.158,298.789 184.312 C 299.265 184.814,299.759 185.894,299.888 186.712 C 300.016 187.531,300.535 189.114,301.041 190.231 C 301.546 191.347,302.347 193.507,302.820 195.031 C 303.292 196.554,304.018 198.790,304.432 200.000 C 305.235 202.345,306.031 206.201,306.786 211.400 C 307.041 213.160,307.419 215.695,307.625 217.033 C 308.836 224.893,307.483 244.079,305.172 251.800 C 304.711 253.340,304.187 255.140,304.008 255.800 C 303.339 258.259,302.034 261.974,301.427 263.148 C 301.082 263.815,300.800 264.632,300.800 264.965 C 300.800 265.840,295.841 275.780,293.996 278.600 C 293.133 279.920,292.205 281.450,291.933 282.000 C 290.845 284.200,285.073 292.620,284.446 292.922 C 284.078 293.099,283.289 294.013,282.694 294.954 C 282.099 295.896,281.249 296.994,280.806 297.395 C 280.363 297.796,280.000 298.376,280.000 298.684 C 280.000 299.418,271.008 308.594,269.200 309.705 C 268.430 310.178,267.345 311.023,266.788 311.583 C 266.231 312.142,265.329 312.960,264.783 313.400 C 264.236 313.840,263.240 314.650,262.569 315.200 C 259.756 317.505,255.775 319.957,252.404 321.461 C 251.196 322.000,249.846 322.762,249.404 323.155 C 247.694 324.673,244.244 326.450,242.283 326.822 C 241.045 327.057,239.821 327.605,239.195 328.204 C 238.517 328.855,237.339 329.349,235.787 329.636 C 234.482 329.877,232.648 330.524,231.710 331.074 C 230.772 331.623,228.699 332.340,227.103 332.666 C 225.506 332.993,223.840 333.489,223.400 333.769 C 219.072 336.526,177.353 336.620,171.800 333.885 C 170.700 333.343,168.731 332.782,167.424 332.638 C 165.804 332.459,164.504 332.014,163.336 331.241 C 162.293 330.550,160.797 329.999,159.512 329.832 C 158.342 329.680,156.732 329.119,155.902 328.575 C 155.079 328.034,153.369 327.344,152.102 327.042 C 150.790 326.729,148.459 325.655,146.681 324.546 C 144.965 323.476,142.601 322.060,141.428 321.400 C 139.443 320.284,137.371 318.971,134.042 316.719 C 133.295 316.213,132.125 315.264,131.442 314.609 C 130.759 313.954,129.717 313.054,129.127 312.609 C 125.210 309.657,123.278 307.958,119.200 303.884 C 116.670 301.356,113.970 298.341,113.200 297.183 C 112.430 296.026,110.597 293.840,109.128 292.326 C 107.196 290.336,106.270 289.014,105.786 287.558 C 105.418 286.450,104.859 285.444,104.544 285.323 C 103.833 285.050,102.800 283.111,102.800 282.051 C 102.800 281.617,102.389 280.753,101.887 280.131 C 100.092 277.906,97.891 273.882,97.173 271.509 C 96.771 270.182,96.054 268.683,95.580 268.179 C 94.942 267.500,94.629 266.459,94.372 264.170 C 94.135 262.058,93.783 260.812,93.263 260.239 C 92.096 258.956,91.741 258.043,91.225 255.000 C 90.964 253.460,90.422 251.639,90.020 250.953 C 87.491 246.634,87.552 207.807,90.098 201.800 C 90.658 200.480,91.301 198.195,91.528 196.722 C 91.760 195.212,92.391 193.276,92.974 192.281 C 93.643 191.139,94.136 189.494,94.372 187.614 C 94.662 185.303,94.956 184.481,95.811 183.589 C 96.520 182.849,97.056 181.650,97.387 180.065 C 97.662 178.743,98.280 177.153,98.760 176.531 C 100.386 174.421,102.294 171.280,102.758 169.949 C 103.012 169.219,103.644 168.168,104.162 167.611 C 104.680 167.055,105.327 165.880,105.601 165.000 C 105.875 164.120,106.572 162.936,107.149 162.368 C 107.727 161.801,108.830 160.559,109.600 159.607 C 110.370 158.656,111.562 157.230,112.250 156.439 C 112.937 155.647,113.837 154.445,114.250 153.766 C 114.662 153.087,116.157 151.467,117.572 150.166 C 118.987 148.865,120.967 146.912,121.972 145.827 C 124.109 143.521,123.957 143.659,128.579 139.793 C 130.547 138.147,132.325 136.800,132.530 136.800 C 132.735 136.800,133.600 136.170,134.453 135.400 C 135.305 134.630,136.248 134.000,136.549 134.000 C 136.850 134.000,138.000 133.280,139.105 132.400 C 140.210 131.520,141.241 130.800,141.396 130.800 C 141.550 130.800,142.165 130.452,142.761 130.028 C 143.358 129.603,144.801 128.893,145.968 128.449 C 147.135 128.006,148.397 127.365,148.773 127.025 C 149.148 126.685,150.433 126.070,151.628 125.659 C 152.823 125.248,154.477 124.452,155.305 123.890 C 156.133 123.328,157.573 122.753,158.505 122.612 C 159.437 122.471,161.100 121.919,162.200 121.385 C 163.300 120.851,165.640 120.217,167.400 119.977 C 169.436 119.700,171.255 119.172,172.400 118.525 C 175.442 116.806,193.498 115.992,210.390 116.812 M165.200 158.661 C 162.415 159.578,162.005 160.660,162.002 167.113 C 161.998 175.528,161.773 175.383,174.651 175.285 C 188.295 175.182,187.994 175.378,187.997 166.600 C 187.999 161.715,187.406 159.814,185.600 158.911 C 184.611 158.417,166.611 158.196,165.200 158.661 M214.400 159.087 C 212.407 160.102,212.034 161.567,212.236 167.590 C 212.506 175.637,211.695 175.165,225.327 175.221 C 238.696 175.276,238.170 175.664,237.933 165.910 C 237.743 158.077,238.641 158.630,225.890 158.487 C 216.863 158.386,215.653 158.450,214.400 159.087 M184.680 160.485 C 185.968 161.503,186.477 169.936,185.405 172.503 C 184.971 173.545,184.219 173.629,174.467 173.718 L 165.533 173.800 164.737 172.819 C 163.547 171.354,163.763 161.400,165.000 160.671 C 166.545 159.761,183.559 159.600,184.680 160.485 M234.193 160.397 C 235.726 160.980,236.329 162.859,236.362 167.154 C 236.415 173.874,236.756 173.677,225.069 173.667 C 213.994 173.657,214.476 173.947,214.371 167.200 C 214.254 159.722,213.853 160.000,224.756 160.000 C 229.371 160.000,233.618 160.179,234.193 160.397 M153.400 181.080 C 150.851 181.721,148.956 184.160,148.114 187.885 C 147.776 189.378,147.046 191.500,146.492 192.600 C 145.657 194.258,145.437 195.421,145.205 199.400 C 144.952 203.744,144.806 204.422,143.663 206.541 C 142.622 208.470,142.400 209.330,142.400 211.436 C 142.400 213.445,142.101 214.713,141.000 217.373 C 139.741 220.414,139.600 221.132,139.600 224.493 C 139.600 227.392,139.427 228.570,138.831 229.740 C 137.578 232.197,137.207 233.571,136.947 236.720 C 136.768 238.892,136.334 240.495,135.350 242.625 L 134.000 245.548 134.000 264.787 C 134.000 286.134,134.019 286.310,136.417 287.146 C 138.821 287.984,175.472 287.763,177.200 286.899 C 179.599 285.701,179.587 285.833,179.532 260.474 C 179.476 234.908,179.369 235.918,182.241 235.049 C 187.642 233.416,187.283 234.782,187.510 215.005 C 187.775 192.074,187.431 183.514,186.190 182.071 L 185.270 181.000 169.735 180.940 C 161.191 180.907,153.840 180.970,153.400 181.080 M195.285 181.380 C 192.981 182.421,192.649 183.919,192.979 191.800 C 193.339 200.406,193.338 215.772,192.977 221.024 C 192.523 227.631,193.598 228.906,199.818 229.136 C 207.177 229.408,206.898 230.468,206.724 202.909 L 206.600 183.218 205.505 182.123 C 204.147 180.765,197.686 180.295,195.285 181.380 M215.378 181.218 C 214.706 181.419,213.762 182.001,213.282 182.513 L 212.407 183.444 212.351 207.022 C 212.285 234.921,211.907 232.797,217.302 234.803 C 220.653 236.049,220.452 234.471,220.601 260.737 C 220.744 286.236,220.730 286.077,222.985 287.019 C 224.641 287.711,261.977 287.893,263.753 287.218 C 266.070 286.337,266.036 286.652,266.122 265.137 L 266.200 245.400 264.885 242.613 C 263.935 240.597,263.480 238.924,263.241 236.570 C 263.023 234.421,262.539 232.513,261.816 230.957 C 260.907 229.001,260.688 227.886,260.531 224.400 C 260.380 221.037,260.119 219.642,259.225 217.400 C 258.543 215.688,257.993 213.356,257.811 211.400 C 257.591 209.037,257.202 207.602,256.324 205.915 C 255.430 204.198,255.059 202.806,254.832 200.315 C 254.615 197.947,254.214 196.372,253.429 194.800 C 252.598 193.140,252.250 191.692,252.011 188.899 C 251.657 184.786,250.761 183.057,248.279 181.700 C 246.833 180.909,217.840 180.485,215.378 181.218 M184.624 182.968 C 185.375 183.517,185.403 184.294,185.501 206.868 C 185.612 232.688,185.675 232.012,183.153 232.422 C 181.300 232.723,179.300 233.908,178.242 235.333 C 177.405 236.459,177.401 236.596,177.550 259.376 C 177.711 284.056,177.653 284.896,175.735 285.625 C 173.970 286.296,138.564 286.105,137.234 285.417 C 135.620 284.583,135.600 284.330,135.600 264.315 L 135.600 246.330 136.940 243.265 C 137.892 241.086,138.351 239.325,138.528 237.173 C 138.696 235.131,139.135 233.374,139.875 231.773 C 140.783 229.810,141.013 228.640,141.208 225.000 C 141.408 221.244,141.606 220.284,142.557 218.443 C 143.399 216.812,143.757 215.375,144.025 212.551 C 144.311 209.527,144.584 208.505,145.461 207.180 C 146.433 205.710,146.568 205.067,146.782 200.856 C 146.988 196.797,147.169 195.872,148.134 193.965 C 148.747 192.753,149.468 190.460,149.736 188.870 C 150.269 185.709,151.457 183.975,153.786 182.960 C 155.627 182.158,183.526 182.165,184.624 182.968 M203.717 183.072 C 205.500 184.174,206.129 223.512,204.398 225.711 C 203.438 226.932,201.261 227.393,198.349 226.993 C 194.916 226.521,194.653 225.993,194.988 220.252 C 195.144 217.584,195.218 214.320,195.153 213.000 C 195.025 210.409,195.031 206.476,195.172 201.400 C 195.221 199.640,195.141 195.352,194.994 191.871 C 194.616 182.919,195.019 182.227,200.376 182.626 C 202.013 182.748,203.517 182.949,203.717 183.072 M246.600 183.010 C 249.314 184.122,250.136 185.616,250.394 189.907 C 250.598 193.275,250.797 194.103,251.866 196.002 C 252.857 197.765,253.146 198.828,253.325 201.367 C 253.501 203.859,253.815 205.044,254.799 206.920 C 255.809 208.848,256.109 210.015,256.362 213.013 C 256.596 215.790,256.933 217.215,257.705 218.691 C 258.581 220.367,258.763 221.326,258.919 225.094 C 259.079 228.941,259.264 229.887,260.325 232.263 C 261.229 234.288,261.591 235.781,261.717 238.000 C 261.854 240.429,262.144 241.495,263.243 243.600 L 264.600 246.200 264.600 264.600 C 264.600 284.037,264.538 284.826,262.961 285.545 C 261.318 286.294,225.899 286.175,224.431 285.416 C 222.787 284.566,222.812 284.943,222.796 260.800 C 222.778 233.927,222.778 233.928,217.798 232.657 C 214.172 231.732,214.389 233.291,214.369 207.968 C 214.350 184.926,214.396 184.218,215.995 182.902 C 216.850 182.199,244.861 182.297,246.600 183.010 " stroke="none" fill="#b4cfac" fill-rule="evenodd"></path></g></svg>